<svg width="220" height="175" viewBox="0 0 220 175" fill="none" xmlns="http://www.w3.org/2000/svg">
<rect width="219.827" height="175" fill="white"/>
<g clip-path="url(#clip0_4200_240)">
<path d="M0 163.334H219.827V35H0V163.334Z" fill="white"/>
<path d="M24.5864 154.754H217.906V41.3535H24.5864V154.754Z" fill="white"/>
<mask id="mask0_4200_240" style="mask-type:luminance" maskUnits="userSpaceOnUse" x="24" y="41" width="194" height="114">
<path d="M217.906 41.3535H24.5864V154.754H217.906V41.3535Z" fill="white"/>
</mask>
<g mask="url(#mask0_4200_240)">
<path d="M28.3042 154.754H69.6119V137.25H28.3042V154.754Z" fill="#8AAFFF"/>
</g>
<mask id="mask1_4200_240" style="mask-type:luminance" maskUnits="userSpaceOnUse" x="24" y="41" width="194" height="114">
<path d="M217.906 41.3535H24.5864V154.754H217.906V41.3535Z" fill="white"/>
</mask>
<g mask="url(#mask1_4200_240)">
<path d="M131.573 154.754H172.881V143.498H131.573V154.754Z" fill="#8AAFFF"/>
</g>
<mask id="mask2_4200_240" style="mask-type:luminance" maskUnits="userSpaceOnUse" x="24" y="41" width="194" height="114">
<path d="M217.906 41.3535H24.5864V154.754H217.906V41.3535Z" fill="white"/>
</mask>
<g mask="url(#mask2_4200_240)">
<path d="M69.6118 154.754H110.92V54.7446H69.6118V154.754Z" fill="#74D38D"/>
</g>
<mask id="mask3_4200_240" style="mask-type:luminance" maskUnits="userSpaceOnUse" x="24" y="41" width="194" height="114">
<path d="M217.906 41.3535H24.5864V154.754H217.906V41.3535Z" fill="white"/>
</mask>
<g mask="url(#mask3_4200_240)">
<path d="M172.881 154.753H214.189V135.394H172.881V154.753Z" fill="#74D38D"/>
</g>
<path d="M69.6118 154.753V159.42Z" fill="black"/>
<path d="M69.6118 154.753V159.42" stroke="black" stroke-width="1.06667"/>
<path d="M172.881 154.753V159.42Z" fill="black"/>
<path d="M172.881 154.753V159.42" stroke="black" stroke-width="1.06667"/>
<path d="M24.5866 154.753H19.9199Z" fill="black"/>
<path d="M24.5866 154.753H19.9199" stroke="black" stroke-width="1.06667"/>
<path d="M11.9201 159.333C11.0937 159.333 10.4583 158.964 10.0138 158.226C9.56939 157.489 9.34717 156.44 9.34717 155.08C9.34717 153.765 9.56939 152.728 10.0138 151.968C10.4583 151.207 11.0937 150.826 11.9201 150.826C12.7465 150.826 13.3819 151.207 13.8263 151.968C14.2708 152.728 14.493 153.765 14.493 155.08C14.493 156.44 14.2708 157.489 13.8263 158.226C13.3819 158.964 12.7465 159.333 11.9201 159.333ZM10.3076 155.08C10.3076 155.648 10.3472 156.155 10.4263 156.599L13.2534 152.96C13.1201 152.542 12.9402 152.217 12.7138 151.987C12.4874 151.756 12.2229 151.641 11.9201 151.641C11.4131 151.641 11.0173 151.952 10.7326 152.574C10.4493 153.196 10.3076 154.032 10.3076 155.08ZM11.9201 158.52C12.427 158.52 12.8222 158.222 13.1055 157.626C13.3902 157.03 13.5326 156.182 13.5326 155.08C13.5326 154.592 13.502 154.147 13.4409 153.747L10.6138 157.333C10.8888 158.124 11.3243 158.52 11.9201 158.52Z" fill="black"/>
<path d="M24.5866 132.074H19.9199Z" fill="black"/>
<path d="M24.5866 132.074H19.9199" stroke="black" stroke-width="1.06667"/>
<path d="M12.8261 136.507V134.467H9.22607V133.786L13.0261 128.186H13.8136V133.694H14.8802V134.48H13.8136V136.507H12.8261ZM10.3073 133.68H12.8261V129.867L10.3073 133.68Z" fill="black"/>
<path d="M24.5866 109.393H19.9199Z" fill="black"/>
<path d="M24.5866 109.393H19.9199" stroke="black" stroke-width="1.06667"/>
<path d="M11.9201 113.96C11.3951 113.96 10.9437 113.86 10.5659 113.66C10.1881 113.46 9.89714 113.191 9.69297 112.854C9.4888 112.516 9.38672 112.143 9.38672 111.733C9.38672 111.254 9.53741 110.805 9.8388 110.387C10.1416 109.969 10.5464 109.645 11.0534 109.414C10.6714 109.218 10.3645 108.945 10.1326 108.593C9.902 108.242 9.78672 107.866 9.78672 107.466C9.78672 106.898 9.97075 106.414 10.3388 106.014C10.7082 105.614 11.2576 105.414 11.9867 105.414C12.502 105.414 12.9194 105.503 13.2388 105.681C13.5596 105.859 13.7978 106.096 13.9534 106.393C14.1089 106.691 14.1867 107.022 14.1867 107.387C14.1867 107.787 14.0666 108.167 13.8263 108.527C13.586 108.886 13.2659 109.173 12.8659 109.387C13.3464 109.609 13.7332 109.927 14.0263 110.341C14.3194 110.754 14.4659 111.2 14.4659 111.681C14.4659 112.116 14.3617 112.504 14.1534 112.847C13.9451 113.189 13.652 113.46 13.2742 113.66C12.8964 113.86 12.4451 113.96 11.9201 113.96ZM12.1471 109.054C12.4763 108.876 12.7471 108.636 12.9596 108.335C13.1735 108.032 13.2805 107.725 13.2805 107.414C13.2805 107.103 13.1714 106.823 12.9534 106.575C12.7353 106.325 12.4041 106.2 11.9596 106.2C11.5249 106.2 11.2027 106.32 10.993 106.56C10.7846 106.8 10.6805 107.071 10.6805 107.372C10.6805 107.782 10.8221 108.109 11.1055 108.354C11.3902 108.598 11.7374 108.831 12.1471 109.054ZM11.9471 113.12C12.4624 113.12 12.8534 112.981 13.1201 112.702C13.3867 112.421 13.5201 112.081 13.5201 111.681C13.5201 111.271 13.3596 110.895 13.0388 110.554C12.7194 110.211 12.2888 109.955 11.7471 109.787C11.3471 109.955 11.0138 110.206 10.7471 110.539C10.4805 110.872 10.3471 111.239 10.3471 111.639C10.3471 112.039 10.4867 112.386 10.7659 112.681C11.0464 112.974 11.4402 113.12 11.9471 113.12Z" fill="black"/>
<path d="M24.5866 86.7134H19.9199Z" fill="black"/>
<path d="M24.5866 86.7134H19.9199" stroke="black" stroke-width="1.06667"/>
<path d="M4.98652 91.1465V83.9861L3.30736 84.4798L3.09277 83.959L5.26569 82.8257H5.91986V91.1465H4.98652Z" fill="black"/>
<path d="M9.55938 90.4007C10.1552 89.7868 10.6927 89.2423 11.1719 88.7673C11.6524 88.2909 12.0615 87.8555 12.399 87.4611C12.7378 87.0652 12.9962 86.6805 13.174 86.3069C13.3517 85.9333 13.4406 85.5423 13.4406 85.134C13.4406 84.5562 13.3024 84.1562 13.026 83.934C12.751 83.7118 12.4177 83.6007 12.026 83.6007C11.7066 83.6007 11.4066 83.6694 11.126 83.8069C10.8469 83.9444 10.5913 84.1555 10.3594 84.4402C10.2802 84.5638 10.2316 84.659 10.2135 84.7257C10.1955 84.7923 10.1906 84.8618 10.199 84.934L10.1469 85.0007L10.0406 84.934L9.35938 84.4007C9.62604 83.884 9.99271 83.4861 10.4594 83.2069C10.926 82.9263 11.4441 82.7861 12.0135 82.7861C12.7149 82.7861 13.2878 82.9972 13.7323 83.4194C14.1767 83.8416 14.399 84.4215 14.399 85.159C14.399 85.6215 14.2969 86.0618 14.0927 86.4798C13.8885 86.8979 13.6149 87.3118 13.2719 87.7215C12.9302 88.1298 12.5413 88.5472 12.1052 88.9736C11.6705 89.4 11.2219 89.8534 10.7594 90.334H13.8531C14.0045 90.334 14.1108 90.325 14.1719 90.3069C14.2344 90.2888 14.2927 90.2534 14.3469 90.2007H14.4406V91.1465H9.55938V90.4007Z" fill="black"/>
<path d="M24.5866 64.0337H19.9199Z" fill="black"/>
<path d="M24.5866 64.0337H19.9199" stroke="black" stroke-width="1.06667"/>
<path d="M4.98652 68.4668V61.3064L3.30736 61.8001L3.09277 61.2793L5.26569 60.146H5.91986V68.4668H4.98652Z" fill="black"/>
<path d="M12.0659 68.6001C11.2395 68.6001 10.602 68.2494 10.1534 67.548C9.70477 66.8452 9.48047 65.889 9.48047 64.6793C9.48047 63.1862 9.74714 62.0445 10.2805 61.2543C10.8138 60.4626 11.5249 60.0668 12.4138 60.0668C13.1152 60.0668 13.7242 60.3202 14.2409 60.8272L13.6534 61.4938L13.5596 61.6001L13.493 61.5334C13.4846 61.4626 13.4645 61.3959 13.4326 61.3334C13.402 61.2709 13.3291 61.1911 13.2138 61.0938C13.018 60.9605 12.7603 60.8938 12.4409 60.8938C12.2631 60.8938 12.0582 60.9362 11.8263 61.0209C11.5957 61.1043 11.3735 61.2619 11.1596 61.4938C10.9471 61.7244 10.7694 62.0508 10.6263 62.473C10.4846 62.8952 10.4089 63.4397 10.3992 64.1063C10.5867 63.7952 10.8381 63.5508 11.1534 63.373C11.4687 63.1952 11.8041 63.1063 12.1596 63.1063C12.5777 63.1063 12.9576 63.2202 13.2992 63.448C13.6423 63.6744 13.918 63.9897 14.1263 64.3938C14.336 64.798 14.4409 65.2758 14.4409 65.8272C14.4409 66.3786 14.3339 66.8633 14.1201 67.2813C13.9062 67.698 13.6214 68.0223 13.2659 68.2543C12.9103 68.4848 12.5103 68.6001 12.0659 68.6001ZM12.1076 67.773C12.4895 67.773 12.8221 67.6091 13.1055 67.2813C13.3902 66.9522 13.5326 66.4716 13.5326 65.8397C13.5326 65.3952 13.4589 65.0313 13.3117 64.748C13.1659 64.4633 12.9819 64.2543 12.7596 64.1209C12.5374 63.9876 12.311 63.9209 12.0805 63.9209C11.7596 63.9209 11.4527 64.03 11.1596 64.248C10.8666 64.4647 10.6312 64.7286 10.4534 65.0397C10.4173 65.3425 10.4284 65.6543 10.4867 65.9751C10.5451 66.2945 10.6471 66.5897 10.793 66.8605C10.9402 67.1313 11.1249 67.3515 11.3471 67.5209C11.5694 67.689 11.8228 67.773 12.1076 67.773Z" fill="black"/>
<path d="M24.5866 41.3535H19.9199Z" fill="black"/>
<path d="M24.5866 41.3535H19.9199" stroke="black" stroke-width="1.06667"/>
<path d="M2.89287 45.0408C3.4887 44.4269 4.0262 43.8825 4.50537 43.4075C4.98593 42.9311 5.39495 42.4956 5.73245 42.1012C6.07134 41.7054 6.32968 41.3206 6.50745 40.947C6.68523 40.5734 6.77412 40.1825 6.77412 39.7741C6.77412 39.1963 6.63593 38.7963 6.35954 38.5741C6.08454 38.3519 5.7512 38.2408 5.35954 38.2408C5.04009 38.2408 4.74009 38.3095 4.45954 38.447C4.18037 38.5845 3.92482 38.7956 3.69287 39.0804C3.6137 39.204 3.56509 39.2991 3.54704 39.3658C3.52898 39.4325 3.52412 39.5019 3.53245 39.5741L3.48037 39.6408L3.37412 39.5741L2.69287 39.0408C2.95954 38.5241 3.3262 38.1262 3.79287 37.847C4.25954 37.5665 4.77759 37.4262 5.34704 37.4262C6.04843 37.4262 6.62134 37.6373 7.06579 38.0595C7.51023 38.4818 7.73245 39.0616 7.73245 39.7991C7.73245 40.2616 7.63037 40.7019 7.4262 41.12C7.22204 41.538 6.94843 41.9519 6.60537 42.3616C6.2637 42.77 5.87482 43.1873 5.4387 43.6137C5.00398 44.0401 4.55537 44.4936 4.09287 44.9741H7.18662C7.33801 44.9741 7.44426 44.9651 7.50537 44.947C7.56787 44.929 7.6262 44.8936 7.68037 44.8408H7.77412V45.7866H2.89287V45.0408Z" fill="black"/>
<path d="M11.9201 45.9326C11.0937 45.9326 10.4583 45.5639 10.0138 44.8264C9.56939 44.0889 9.34717 43.0403 9.34717 41.6805C9.34717 40.3653 9.56939 39.3278 10.0138 38.568C10.4583 37.8069 11.0937 37.4264 11.9201 37.4264C12.7465 37.4264 13.3819 37.8069 13.8263 38.568C14.2708 39.3278 14.493 40.3653 14.493 41.6805C14.493 43.0403 14.2708 44.0889 13.8263 44.8264C13.3819 45.5639 12.7465 45.9326 11.9201 45.9326ZM10.3076 41.6805C10.3076 42.2486 10.3472 42.7548 10.4263 43.1993L13.2534 39.5597C13.1201 39.1416 12.9402 38.8173 12.7138 38.5868C12.4874 38.3562 12.2229 38.241 11.9201 38.241C11.4131 38.241 11.0173 38.5521 10.7326 39.1743C10.4493 39.7965 10.3076 40.6319 10.3076 41.6805ZM11.9201 45.1201C12.427 45.1201 12.8222 44.8222 13.1055 44.2264C13.3902 43.6305 13.5326 42.7819 13.5326 41.6805C13.5326 41.1916 13.502 40.7472 13.4409 40.3472L10.6138 43.9326C10.8888 44.7243 11.3243 45.1201 11.9201 45.1201Z" fill="black"/>
<path d="M24.5864 154.754V41.3535" stroke="black" stroke-width="1.06667" stroke-linecap="square"/>
<path d="M24.5864 154.753H217.906" stroke="black" stroke-width="1.06667" stroke-linecap="square"/>
<path d="M42.1581 131.867C41.722 131.867 41.3039 131.787 40.9039 131.628C40.5039 131.468 40.1622 131.232 39.8789 130.921L40.4914 130.188L40.5852 130.082L40.6518 130.148C40.6602 130.219 40.6775 130.288 40.7039 130.355C40.7317 130.421 40.7942 130.508 40.8914 130.615C41.0428 130.748 41.2157 130.857 41.4102 130.942C41.606 131.026 41.8421 131.067 42.1185 131.067C42.6518 131.067 43.047 130.912 43.3039 130.601C43.5622 130.289 43.6914 129.889 43.6914 129.401C43.6914 128.77 43.4803 128.323 43.0581 128.061C42.6359 127.798 42.0692 127.703 41.3581 127.776V127.028C41.9359 127.028 42.3713 126.953 42.6643 126.803C42.9574 126.651 43.1553 126.449 43.2581 126.196C43.3609 125.942 43.4122 125.673 43.4122 125.388C43.4122 125.006 43.3032 124.706 43.0852 124.488C42.8671 124.27 42.5803 124.161 42.2247 124.161C41.9581 124.161 41.6977 124.205 41.4435 124.294C41.1907 124.383 40.9442 124.544 40.7039 124.776L40.1456 124.215C40.447 123.904 40.7775 123.684 41.1372 123.555C41.4984 123.426 41.8567 123.361 42.2122 123.361C42.8872 123.361 43.4157 123.553 43.7977 123.936C44.1796 124.318 44.3706 124.815 44.3706 125.428C44.3706 125.864 44.2636 126.253 44.0497 126.596C43.8372 126.938 43.5088 127.18 43.0643 127.321C43.5352 127.473 43.9171 127.722 44.2102 128.069C44.5046 128.415 44.6518 128.873 44.6518 129.442C44.6518 129.877 44.556 130.279 44.3643 130.648C44.174 131.016 43.8942 131.312 43.5247 131.534C43.1553 131.756 42.6997 131.867 42.1581 131.867Z" fill="black"/>
<path d="M48.7978 131.867C48.5853 131.867 48.4034 131.792 48.252 131.642C48.1006 131.491 48.0249 131.313 48.0249 131.109C48.0249 130.903 48.1006 130.726 48.252 130.576C48.4034 130.424 48.5853 130.348 48.7978 130.348C49.002 130.348 49.1798 130.424 49.3312 130.576C49.4825 130.726 49.5582 130.903 49.5582 131.109C49.5582 131.313 49.4825 131.491 49.3312 131.642C49.1798 131.792 49.002 131.867 48.7978 131.867Z" fill="black"/>
<path d="M55.3581 131.721V124.561L53.6789 125.055L53.4644 124.534L55.6373 123.4H56.2914V131.721H55.3581Z" fill="black"/>
<path d="M143.2 138.178C143.796 137.565 144.334 137.02 144.813 136.545C145.294 136.069 145.703 135.633 146.04 135.239C146.379 134.843 146.637 134.458 146.815 134.085C146.993 133.711 147.082 133.32 147.082 132.912C147.082 132.334 146.944 131.934 146.667 131.712C146.392 131.49 146.059 131.378 145.667 131.378C145.348 131.378 145.048 131.447 144.767 131.585C144.488 131.722 144.232 131.933 144 132.218C143.921 132.342 143.873 132.437 143.855 132.503C143.837 132.57 143.832 132.64 143.84 132.712L143.788 132.778L143.682 132.712L143 132.178C143.267 131.662 143.634 131.264 144.1 130.985C144.567 130.704 145.085 130.564 145.655 130.564C146.356 130.564 146.929 130.775 147.373 131.197C147.818 131.619 148.04 132.199 148.04 132.937C148.04 133.399 147.938 133.84 147.734 134.258C147.53 134.676 147.256 135.09 146.913 135.499C146.571 135.908 146.182 136.325 145.746 136.751C145.312 137.178 144.863 137.631 144.4 138.112H147.494C147.646 138.112 147.752 138.103 147.813 138.085C147.875 138.067 147.934 138.031 147.988 137.978H148.082V138.924H143.2V138.178Z" fill="black"/>
<path d="M152.067 139.07C151.855 139.07 151.673 138.995 151.522 138.845C151.37 138.694 151.294 138.516 151.294 138.312C151.294 138.106 151.37 137.929 151.522 137.779C151.673 137.627 151.855 137.552 152.067 137.552C152.272 137.552 152.449 137.627 152.601 137.779C152.752 137.929 152.828 138.106 152.828 138.312C152.828 138.516 152.752 138.694 152.601 138.845C152.449 138.995 152.272 139.07 152.067 139.07Z" fill="black"/>
<path d="M158.894 139.07C158.068 139.07 157.432 138.702 156.988 137.964C156.544 137.227 156.321 136.178 156.321 134.818C156.321 133.503 156.544 132.465 156.988 131.706C157.432 130.945 158.068 130.564 158.894 130.564C159.721 130.564 160.356 130.945 160.8 131.706C161.245 132.465 161.467 133.503 161.467 134.818C161.467 136.178 161.245 137.227 160.8 137.964C160.356 138.702 159.721 139.07 158.894 139.07ZM157.282 134.818C157.282 135.386 157.321 135.893 157.4 136.337L160.228 132.697C160.094 132.279 159.914 131.955 159.688 131.724C159.462 131.494 159.197 131.379 158.894 131.379C158.387 131.379 157.991 131.69 157.707 132.312C157.423 132.934 157.282 133.77 157.282 134.818ZM158.894 138.258C159.401 138.258 159.796 137.96 160.08 137.364C160.364 136.768 160.507 135.92 160.507 134.818C160.507 134.329 160.476 133.885 160.415 133.485L157.588 137.07C157.863 137.862 158.298 138.258 158.894 138.258Z" fill="black"/>
<path d="M79.9992 48.4434V41.2829L78.3201 41.7767L78.1055 41.2559L80.2784 40.1225H80.9326V48.4434H79.9992Z" fill="black"/>
<path d="M85.6658 48.4434C86.0575 47.1725 86.4617 45.9239 86.8783 44.6975C87.2964 43.4697 87.7367 42.2427 88.1992 41.0163H84.6533V40.1371H89.3596V40.6559C88.8526 41.9364 88.3769 43.2211 87.9325 44.51C87.488 45.7989 87.0839 47.11 86.72 48.4434H85.6658Z" fill="black"/>
<path d="M93.4389 48.5894C93.2264 48.5894 93.0445 48.5144 92.8931 48.3644C92.7417 48.213 92.666 48.0352 92.666 47.831C92.666 47.6255 92.7417 47.4477 92.8931 47.2977C93.0445 47.1463 93.2264 47.0706 93.4389 47.0706C93.6431 47.0706 93.8209 47.1463 93.9723 47.2977C94.1237 47.4477 94.1993 47.6255 94.1993 47.831C94.1993 48.0352 94.1237 48.213 93.9723 48.3644C93.8209 48.5144 93.6431 48.5894 93.4389 48.5894Z" fill="black"/>
<path d="M100.412 48.5767C99.5852 48.5767 98.9477 48.226 98.4991 47.5246C98.0505 46.8218 97.8262 45.8655 97.8262 44.6558C97.8262 43.1628 98.0928 42.0211 98.6262 41.2308C99.1595 40.4392 99.8706 40.0433 100.76 40.0433C101.461 40.0433 102.07 40.2968 102.587 40.8037L101.999 41.4704L101.905 41.5767L101.839 41.51C101.83 41.4392 101.81 41.3725 101.778 41.31C101.748 41.2475 101.675 41.1676 101.56 41.0704C101.364 40.9371 101.106 40.8704 100.787 40.8704C100.609 40.8704 100.404 40.9128 100.172 40.9975C99.9414 41.0808 99.7192 41.2385 99.5053 41.4704C99.2928 41.701 99.1151 42.0274 98.972 42.4496C98.8303 42.8718 98.7546 43.4162 98.7449 44.0829C98.9324 43.7718 99.1838 43.5274 99.4991 43.3496C99.8144 43.1718 100.15 43.0829 100.505 43.0829C100.923 43.0829 101.303 43.1968 101.645 43.4246C101.988 43.651 102.264 43.9662 102.472 44.3704C102.682 44.7746 102.787 45.2524 102.787 45.8037C102.787 46.3551 102.68 46.8399 102.466 47.2579C102.252 47.6746 101.967 47.9989 101.612 48.2308C101.256 48.4614 100.856 48.5767 100.412 48.5767ZM100.453 47.7496C100.835 47.7496 101.168 47.5857 101.451 47.2579C101.736 46.9287 101.878 46.4482 101.878 45.8162C101.878 45.3718 101.805 45.0079 101.657 44.7246C101.512 44.4399 101.328 44.2308 101.105 44.0975C100.883 43.9642 100.657 43.8975 100.426 43.8975C100.105 43.8975 99.7984 44.0065 99.5053 44.2246C99.2123 44.4412 98.9769 44.7051 98.7991 45.0162C98.763 45.319 98.7741 45.6308 98.8324 45.9517C98.8908 46.2711 98.9928 46.5662 99.1387 46.8371C99.2859 47.1079 99.4706 47.328 99.6928 47.4975C99.9151 47.6655 100.169 47.7496 100.453 47.7496Z" fill="black"/>
<path d="M186.735 130.665C186.299 130.665 185.881 130.585 185.481 130.425C185.081 130.265 184.739 130.03 184.456 129.719L185.069 128.985L185.162 128.879L185.229 128.946C185.237 129.017 185.255 129.085 185.281 129.152C185.309 129.219 185.371 129.306 185.469 129.412C185.62 129.546 185.793 129.655 185.987 129.74C186.183 129.823 186.419 129.865 186.696 129.865C187.229 129.865 187.624 129.709 187.881 129.398C188.139 129.087 188.269 128.687 188.269 128.198C188.269 127.567 188.057 127.121 187.635 126.858C187.213 126.596 186.646 126.501 185.935 126.573V125.825C186.513 125.825 186.948 125.75 187.241 125.6C187.535 125.449 187.732 125.246 187.835 124.994C187.938 124.74 187.989 124.47 187.989 124.185C187.989 123.803 187.88 123.503 187.662 123.285C187.444 123.067 187.157 122.958 186.802 122.958C186.535 122.958 186.275 123.003 186.021 123.092C185.768 123.181 185.521 123.341 185.281 123.573L184.723 123.012C185.024 122.701 185.355 122.481 185.714 122.352C186.075 122.223 186.434 122.158 186.789 122.158C187.464 122.158 187.993 122.35 188.375 122.733C188.757 123.115 188.948 123.612 188.948 124.225C188.948 124.661 188.841 125.051 188.627 125.394C188.414 125.735 188.086 125.977 187.641 126.119C188.112 126.27 188.494 126.519 188.787 126.867C189.082 127.212 189.229 127.67 189.229 128.24C189.229 128.674 189.133 129.076 188.941 129.446C188.751 129.814 188.471 130.109 188.102 130.331C187.732 130.553 187.277 130.665 186.735 130.665Z" fill="black"/>
<path d="M193.375 130.665C193.162 130.665 192.981 130.59 192.829 130.44C192.678 130.288 192.602 130.11 192.602 129.906C192.602 129.701 192.678 129.523 192.829 129.373C192.981 129.221 193.162 129.146 193.375 129.146C193.579 129.146 193.757 129.221 193.908 129.373C194.06 129.523 194.135 129.701 194.135 129.906C194.135 130.11 194.06 130.288 193.908 130.44C193.757 130.59 193.579 130.665 193.375 130.665Z" fill="black"/>
<path d="M201.108 130.519V128.479H197.508V127.798L201.308 122.198H202.096V127.706H203.162V128.491H202.096V130.519H201.108ZM198.59 127.691H201.108V123.879L198.59 127.691Z" fill="black"/>
<path opacity="0.8" d="M120.707 83.8223H211.907V47.3535H120.707V83.8223Z" fill="white" stroke="#CCCCCC" stroke-width="1.33333"/>
<path d="M125.506 60.5533H149.506V52.1533H125.506V60.5533Z" fill="#8AAFFF"/>
<path d="M161.602 60.5532V53.822H159.478V53.0645H164.662V53.822H162.456V60.5532H161.602Z" fill="black"/>
<path d="M166.536 55.0688H167.436L167.411 56.0776C167.563 55.7088 167.798 55.427 168.118 55.232C168.438 55.0357 168.783 54.9376 169.151 54.9376C169.735 54.9376 170.219 55.1376 170.603 55.5376L170.218 56.2088L170.171 56.3176L170.087 56.2688C170.071 56.2051 170.046 56.1451 170.014 56.0888C169.983 56.0326 169.915 55.9645 169.811 55.8845C169.683 55.8045 169.564 55.7507 169.457 55.7232C169.349 55.6957 169.228 55.682 169.091 55.682C168.828 55.682 168.566 55.7501 168.306 55.8863C168.046 56.0213 167.831 56.2332 167.663 56.522C167.495 56.8095 167.411 57.1851 167.411 57.6488V60.5645H166.536V55.0688Z" fill="black"/>
<path d="M173.638 60.6846C173.014 60.6846 172.534 60.5427 172.198 60.2589C171.863 59.9752 171.695 59.6133 171.695 59.1733C171.695 58.7808 171.819 58.4427 172.067 58.1589C172.314 57.8752 172.648 57.6552 173.068 57.4989C173.488 57.3427 173.95 57.2646 174.455 57.2646C174.639 57.2646 174.833 57.2689 175.037 57.2777C175.24 57.2852 175.458 57.3052 175.691 57.3377C175.642 56.6977 175.476 56.2577 175.192 56.0177C174.908 55.7777 174.503 55.6577 173.975 55.6577C173.71 55.6577 173.45 55.7077 173.193 55.8077C172.938 55.9077 172.707 56.0614 172.498 56.2689L172.078 55.7177C172.334 55.4614 172.63 55.2696 172.967 55.1421C173.303 55.0133 173.659 54.9489 174.035 54.9489C174.523 54.9489 174.947 55.0289 175.307 55.1889C175.667 55.3489 175.947 55.6252 176.147 56.0177C176.347 56.4089 176.447 56.9489 176.447 57.6377V60.5533H175.511V59.7133C175.375 59.9771 175.2 60.1789 174.988 60.3189C174.777 60.4589 174.553 60.5546 174.317 60.6058C174.08 60.6583 173.854 60.6846 173.638 60.6846ZM172.558 59.1246C172.558 59.4696 172.67 59.7058 172.893 59.8333C173.118 59.9608 173.395 60.0246 173.722 60.0246C174.315 60.0246 174.783 59.8508 175.127 59.5033C175.47 59.1558 175.658 58.6539 175.691 57.9977C175.275 57.9414 174.887 57.9133 174.527 57.9133C173.95 57.9133 173.478 58.0096 173.109 58.2021C172.742 58.3933 172.558 58.7008 172.558 59.1246Z" fill="black"/>
<path d="M178.307 60.5532V59.8576H179.711V55.7645H178.378V55.0688H180.575V59.8576H181.858V60.5532H178.307ZM180.095 53.9176C179.927 53.9176 179.782 53.8576 179.662 53.7376C179.542 53.6176 179.482 53.4732 179.482 53.3045C179.482 53.1295 179.54 52.982 179.657 52.862C179.773 52.742 179.919 52.682 180.095 52.682C180.263 52.682 180.409 52.7438 180.532 52.8676C180.656 52.9913 180.718 53.137 180.718 53.3045C180.718 53.4732 180.656 53.6176 180.532 53.7376C180.409 53.8576 180.263 53.9176 180.095 53.9176Z" fill="black"/>
<path d="M183.971 60.5532V55.0688H184.811V56.042C185.019 55.7057 185.288 55.4376 185.619 55.2376C185.952 55.0376 186.302 54.9376 186.671 54.9376C187.119 54.9376 187.498 55.112 187.809 55.4607C188.122 55.8082 188.278 56.3976 188.278 57.2288V60.5532H187.438V57.2532C187.438 56.677 187.34 56.2732 187.144 56.042C186.949 55.8095 186.711 55.6932 186.431 55.6932C186.191 55.6932 185.945 55.7632 185.692 55.9032C185.441 56.0432 185.231 56.2395 185.062 56.492C184.895 56.7432 184.811 57.0451 184.811 57.3976V60.5532H183.971Z" fill="black"/>
<path d="M190.307 60.5532V59.8576H191.711V55.7645H190.378V55.0688H192.575V59.8576H193.858V60.5532H190.307ZM192.095 53.9176C191.927 53.9176 191.782 53.8576 191.662 53.7376C191.542 53.6176 191.482 53.4732 191.482 53.3045C191.482 53.1295 191.54 52.982 191.657 52.862C191.773 52.742 191.919 52.682 192.095 52.682C192.263 52.682 192.409 52.7438 192.532 52.8676C192.656 52.9913 192.718 53.137 192.718 53.3045C192.718 53.4732 192.656 53.6176 192.532 53.7376C192.409 53.8576 192.263 53.9176 192.095 53.9176Z" fill="black"/>
<path d="M195.971 60.5532V55.0688H196.811V56.042C197.019 55.7057 197.288 55.4376 197.619 55.2376C197.952 55.0376 198.302 54.9376 198.671 54.9376C199.119 54.9376 199.498 55.112 199.809 55.4607C200.122 55.8082 200.278 56.3976 200.278 57.2288V60.5532H199.438V57.2532C199.438 56.677 199.34 56.2732 199.144 56.042C198.949 55.8095 198.711 55.6932 198.431 55.6932C198.191 55.6932 197.945 55.7632 197.692 55.9032C197.441 56.0432 197.231 56.2395 197.062 56.492C196.895 56.7432 196.811 57.0451 196.811 57.3976V60.5532H195.971Z" fill="black"/>
<path d="M203.818 58.6933C203.507 58.6933 203.223 58.6371 202.967 58.5246C202.823 58.7008 202.751 58.8689 202.751 59.0289C202.751 59.2214 202.871 59.3596 203.111 59.4433C203.351 59.5271 203.791 59.5689 204.431 59.5689C204.991 59.5689 205.415 59.6289 205.703 59.7489C205.991 59.8689 206.188 60.0333 206.291 60.2421C206.395 60.4496 206.447 60.6896 206.447 60.9621C206.447 61.2421 206.371 61.5096 206.218 61.7646C206.067 62.0208 205.817 62.2271 205.468 62.3833C205.121 62.5396 204.655 62.6177 204.071 62.6177C203.303 62.6177 202.692 62.4996 202.239 62.2633C201.788 62.0271 201.562 61.6733 201.562 61.2021C201.562 60.9058 201.646 60.6521 201.814 60.4408C201.983 60.2283 202.183 60.0696 202.416 59.9646C202.151 59.7896 202.018 59.5458 202.018 59.2333C202.018 59.0571 202.062 58.8852 202.149 58.7177C202.238 58.5489 202.359 58.3846 202.511 58.2246C202.103 57.8646 201.898 57.3808 201.898 56.7733C201.898 56.4208 201.976 56.1008 202.133 55.8133C202.289 55.5258 202.511 55.2958 202.798 55.1233C203.087 54.9508 203.427 54.8646 203.818 54.8646C204.114 54.8646 204.381 54.9146 204.617 55.0146C204.853 55.1146 205.055 55.2527 205.223 55.4289C205.431 55.2377 205.651 55.1002 205.883 55.0164C206.115 54.9314 206.387 54.9008 206.698 54.9246L206.807 55.6333C206.567 55.6096 206.341 55.6139 206.128 55.6464C205.917 55.6777 205.719 55.7533 205.536 55.8733C205.671 56.1458 205.738 56.4458 205.738 56.7733C205.738 57.1258 205.66 57.4483 205.504 57.7408C205.349 58.0321 205.129 58.2639 204.844 58.4364C204.56 58.6077 204.218 58.6933 203.818 58.6933ZM203.818 57.9733C204.171 57.9733 204.459 57.8552 204.683 57.6189C204.906 57.3827 205.018 57.1008 205.018 56.7733C205.018 56.4458 204.906 56.1639 204.683 55.9277C204.459 55.6914 204.171 55.5733 203.818 55.5733C203.474 55.5733 203.188 55.6914 202.959 55.9277C202.732 56.1639 202.618 56.4458 202.618 56.7733C202.618 57.1008 202.732 57.3827 202.959 57.6189C203.188 57.8552 203.474 57.9733 203.818 57.9733ZM202.356 61.1046C202.356 61.3771 202.509 61.5889 202.817 61.7402C203.124 61.8927 203.546 61.9689 204.083 61.9689C204.626 61.9689 205.024 61.8871 205.277 61.7233C205.529 61.5596 205.656 61.3496 205.656 61.0933C205.656 60.9171 205.623 60.7727 205.558 60.6602C205.494 60.5489 205.363 60.4652 205.163 60.4089C204.963 60.3527 204.659 60.3246 204.251 60.3246C203.971 60.3246 203.717 60.3127 203.488 60.2889C203.261 60.2652 203.055 60.2252 202.871 60.1689C202.688 60.2977 202.556 60.4277 202.476 60.5589C202.396 60.6914 202.356 60.8733 202.356 61.1046Z" fill="black"/>
<path d="M125.506 77.0177H149.506V68.6177H125.506V77.0177Z" fill="#74D38D"/>
<path d="M162.118 77.1494C161.318 77.1494 160.716 76.9119 160.312 76.4369C159.908 75.9607 159.707 75.2944 159.707 74.4382V69.5425H160.642V69.6269C160.595 69.6744 160.565 69.7263 160.552 69.7825C160.541 69.8388 160.535 69.9344 160.535 70.0694V74.4494C160.535 75.0582 160.653 75.5425 160.888 75.9025C161.124 76.2625 161.538 76.4425 162.131 76.4425C162.731 76.4425 163.151 76.2625 163.391 75.9025C163.631 75.5425 163.751 75.0463 163.751 74.4138V69.5425H164.555V74.4025C164.555 75.3463 164.333 76.04 163.888 76.4838C163.444 76.9275 162.854 77.1494 162.118 77.1494Z" fill="black"/>
<path d="M165.971 77.0181V71.5337H166.811V72.5068C167.018 72.1706 167.288 71.9024 167.619 71.7024C167.951 71.5024 168.302 71.4024 168.671 71.4024C169.118 71.4024 169.498 71.5768 169.809 71.9256C170.121 72.2731 170.278 72.8624 170.278 73.6937V77.0181H169.438V73.7181C169.438 73.1418 169.339 72.7381 169.143 72.5068C168.948 72.2743 168.711 72.1581 168.431 72.1581C168.191 72.1581 167.944 72.2281 167.692 72.3681C167.441 72.5081 167.231 72.7043 167.062 72.9568C166.894 73.2081 166.811 73.5099 166.811 73.8624V77.0181H165.971Z" fill="black"/>
<path d="M174.118 77.1382C173.19 77.1382 172.415 76.8501 171.791 76.2738L172.271 75.4582L172.342 75.3494L172.415 75.3982C172.43 75.4619 172.448 75.5282 172.468 75.5969C172.488 75.6644 172.542 75.7463 172.631 75.8426C172.799 76.0101 173 76.1482 173.237 76.2569C173.473 76.3644 173.775 76.4182 174.142 76.4182C174.582 76.4182 174.924 76.3401 175.168 76.1838C175.413 76.0276 175.535 75.8138 175.535 75.5426C175.535 75.3101 175.433 75.1182 175.228 74.9669C175.024 74.8144 174.667 74.6544 174.155 74.4869C173.523 74.3019 173.02 74.0738 172.648 73.8026C172.277 73.5301 172.091 73.1901 172.091 72.7826C172.091 72.3663 172.261 72.0326 172.601 71.7813C172.941 71.5288 173.443 71.4026 174.107 71.4026C174.619 71.4026 175.043 71.4744 175.378 71.6182C175.714 71.7619 176.019 71.9782 176.291 72.2669L175.798 72.8669L175.715 72.9626L175.655 72.9026C175.647 72.8388 175.628 72.7769 175.599 72.7169C175.572 72.6569 175.514 72.5826 175.427 72.4938C175.243 72.3501 175.035 72.2401 174.802 72.1638C174.571 72.0876 174.347 72.0494 174.131 72.0494C173.811 72.0494 173.535 72.1057 173.302 72.2182C173.071 72.3307 172.955 72.5026 172.955 72.7338C172.955 72.8538 172.997 72.9719 173.081 73.0882C173.165 73.2044 173.319 73.3207 173.542 73.4369C173.766 73.5519 174.086 73.6694 174.502 73.7894C175.191 73.9982 175.677 74.2244 175.961 74.4682C176.245 74.7119 176.387 75.0301 176.387 75.4226C176.387 75.7263 176.305 76.0101 176.141 76.2738C175.977 76.5376 175.727 76.7476 175.391 76.9038C175.055 77.0601 174.63 77.1382 174.118 77.1382Z" fill="black"/>
<path d="M180.371 77.1382C179.571 77.1382 178.925 76.8944 178.432 76.4069C177.941 75.9182 177.695 75.2138 177.695 74.2938C177.695 73.6701 177.809 73.1444 178.037 72.7169C178.264 72.2882 178.568 71.9619 178.948 71.7382C179.328 71.5144 179.75 71.4026 180.215 71.4026C180.63 71.4026 181.006 71.4944 181.342 71.6782C181.678 71.8619 181.947 72.1463 182.147 72.5313C182.347 72.9151 182.447 73.4069 182.447 74.0069C182.447 74.0707 182.445 74.1369 182.441 74.2057C182.437 74.2732 182.431 74.3388 182.422 74.4026H178.522C178.555 75.1063 178.753 75.6226 179.117 75.9513C179.48 76.2788 179.907 76.4426 180.395 76.4426C180.97 76.4426 181.442 76.2382 181.811 75.8294L182.291 76.2982C181.827 76.8582 181.187 77.1382 180.371 77.1382ZM178.558 73.7294H181.571C181.571 73.2182 181.441 72.8126 181.181 72.5126C180.921 72.2126 180.579 72.0626 180.155 72.0626C179.779 72.0626 179.438 72.1969 179.133 72.4657C178.83 72.7332 178.638 73.1544 178.558 73.7294Z" fill="black"/>
<path d="M186.371 77.1382C185.571 77.1382 184.925 76.8944 184.432 76.4069C183.941 75.9182 183.695 75.2138 183.695 74.2938C183.695 73.6701 183.809 73.1444 184.037 72.7169C184.264 72.2882 184.568 71.9619 184.948 71.7382C185.328 71.5144 185.75 71.4026 186.215 71.4026C186.63 71.4026 187.006 71.4944 187.342 71.6782C187.678 71.8619 187.947 72.1463 188.147 72.5313C188.347 72.9151 188.447 73.4069 188.447 74.0069C188.447 74.0707 188.445 74.1369 188.441 74.2057C188.437 74.2732 188.431 74.3388 188.422 74.4026H184.522C184.555 75.1063 184.753 75.6226 185.117 75.9513C185.48 76.2788 185.907 76.4426 186.395 76.4426C186.97 76.4426 187.442 76.2382 187.811 75.8294L188.291 76.2982C187.827 76.8582 187.187 77.1382 186.371 77.1382ZM184.558 73.7294H187.571C187.571 73.2182 187.441 72.8126 187.181 72.5126C186.921 72.2126 186.579 72.0626 186.155 72.0626C185.779 72.0626 185.438 72.1969 185.133 72.4657C184.83 72.7332 184.638 73.1544 184.558 73.7294Z" fill="black"/>
<path d="M189.971 77.0181V71.5337H190.811V72.5068C191.018 72.1706 191.288 71.9024 191.619 71.7024C191.951 71.5024 192.302 71.4024 192.671 71.4024C193.118 71.4024 193.498 71.5768 193.809 71.9256C194.121 72.2731 194.278 72.8624 194.278 73.6937V77.0181H193.438V73.7181C193.438 73.1418 193.339 72.7381 193.143 72.5068C192.948 72.2743 192.711 72.1581 192.431 72.1581C192.191 72.1581 191.944 72.2281 191.692 72.3681C191.441 72.5081 191.231 72.7043 191.062 72.9568C190.894 73.2081 190.811 73.5099 190.811 73.8624V77.0181H189.971Z" fill="black"/>
<mask id="mask4_4200_240" style="mask-type:luminance" maskUnits="userSpaceOnUse" x="24" y="41" width="194" height="114">
<path d="M217.906 41.3535H24.5864V154.754H217.906V41.3535Z" fill="white"/>
</mask>
<g mask="url(#mask4_4200_240)">
<path d="M48.958 138.644V135.856" stroke="#555DFF" stroke-width="2"/>
</g>
<mask id="mask5_4200_240" style="mask-type:luminance" maskUnits="userSpaceOnUse" x="24" y="41" width="194" height="114">
<path d="M217.906 41.3535H24.5864V154.754H217.906V41.3535Z" fill="white"/>
</mask>
<g mask="url(#mask5_4200_240)">
<path d="M52.958 138.645H44.958Z" fill="#555DFF"/>
<path d="M52.958 138.645H44.958" stroke="#555DFF" stroke-width="2"/>
</g>
<mask id="mask6_4200_240" style="mask-type:luminance" maskUnits="userSpaceOnUse" x="24" y="41" width="194" height="114">
<path d="M217.906 41.3535H24.5864V154.754H217.906V41.3535Z" fill="white"/>
</mask>
<g mask="url(#mask6_4200_240)">
<path d="M52.958 135.856H44.958Z" fill="#555DFF"/>
<path d="M52.958 135.856H44.958" stroke="#555DFF" stroke-width="2"/>
</g>
<mask id="mask7_4200_240" style="mask-type:luminance" maskUnits="userSpaceOnUse" x="24" y="41" width="194" height="114">
<path d="M217.906 41.3535H24.5864V154.754H217.906V41.3535Z" fill="white"/>
</mask>
<g mask="url(#mask7_4200_240)">
<path d="M152.227 143.936V143.059" stroke="#555DFF" stroke-width="2"/>
</g>
<mask id="mask8_4200_240" style="mask-type:luminance" maskUnits="userSpaceOnUse" x="24" y="41" width="194" height="114">
<path d="M217.906 41.3535H24.5864V154.754H217.906V41.3535Z" fill="white"/>
</mask>
<g mask="url(#mask8_4200_240)">
<path d="M156.227 143.936H148.227Z" fill="#555DFF"/>
<path d="M156.227 143.936H148.227" stroke="#555DFF" stroke-width="2"/>
</g>
<mask id="mask9_4200_240" style="mask-type:luminance" maskUnits="userSpaceOnUse" x="24" y="41" width="194" height="114">
<path d="M217.906 41.3535H24.5864V154.754H217.906V41.3535Z" fill="white"/>
</mask>
<g mask="url(#mask9_4200_240)">
<path d="M156.227 143.059H148.227Z" fill="#555DFF"/>
<path d="M156.227 143.059H148.227" stroke="#555DFF" stroke-width="2"/>
</g>
<mask id="mask10_4200_240" style="mask-type:luminance" maskUnits="userSpaceOnUse" x="24" y="41" width="194" height="114">
<path d="M217.906 41.3535H24.5864V154.754H217.906V41.3535Z" fill="white"/>
</mask>
<g mask="url(#mask10_4200_240)">
<path d="M90.2656 56.9107V52.5781" stroke="#009C2A" stroke-width="2"/>
</g>
<mask id="mask11_4200_240" style="mask-type:luminance" maskUnits="userSpaceOnUse" x="24" y="41" width="194" height="114">
<path d="M217.906 41.3535H24.5864V154.754H217.906V41.3535Z" fill="white"/>
</mask>
<g mask="url(#mask11_4200_240)">
<path d="M94.2656 56.9106H86.2656Z" fill="#009C2A"/>
<path d="M94.2656 56.9106H86.2656" stroke="#009C2A" stroke-width="2"/>
</g>
<mask id="mask12_4200_240" style="mask-type:luminance" maskUnits="userSpaceOnUse" x="24" y="41" width="194" height="114">
<path d="M217.906 41.3535H24.5864V154.754H217.906V41.3535Z" fill="white"/>
</mask>
<g mask="url(#mask12_4200_240)">
<path d="M94.2656 52.5781H86.2656Z" fill="#009C2A"/>
<path d="M94.2656 52.5781H86.2656" stroke="#009C2A" stroke-width="2"/>
</g>
<mask id="mask13_4200_240" style="mask-type:luminance" maskUnits="userSpaceOnUse" x="24" y="41" width="194" height="114">
<path d="M217.906 41.3535H24.5864V154.754H217.906V41.3535Z" fill="white"/>
</mask>
<g mask="url(#mask13_4200_240)">
<path d="M193.535 136.135V134.653" stroke="#009C2A" stroke-width="2"/>
</g>
<mask id="mask14_4200_240" style="mask-type:luminance" maskUnits="userSpaceOnUse" x="24" y="41" width="194" height="114">
<path d="M217.906 41.3535H24.5864V154.754H217.906V41.3535Z" fill="white"/>
</mask>
<g mask="url(#mask14_4200_240)">
<path d="M197.535 136.135H189.535Z" fill="#009C2A"/>
<path d="M197.535 136.135H189.535" stroke="#009C2A" stroke-width="2"/>
</g>
<mask id="mask15_4200_240" style="mask-type:luminance" maskUnits="userSpaceOnUse" x="24" y="41" width="194" height="114">
<path d="M217.906 41.3535H24.5864V154.754H217.906V41.3535Z" fill="white"/>
</mask>
<g mask="url(#mask15_4200_240)">
<path d="M197.535 134.653H189.535Z" fill="#009C2A"/>
<path d="M197.535 134.653H189.535" stroke="#009C2A" stroke-width="2"/>
</g>
</g>
<path d="M139.624 172V163.901H141.925C142.393 163.901 142.796 163.949 143.134 164.044C143.472 164.139 143.749 164.274 143.966 164.447C144.191 164.62 144.356 164.828 144.46 165.071C144.564 165.314 144.616 165.578 144.616 165.864C144.616 166.115 144.568 166.362 144.473 166.605C144.386 166.848 144.252 167.06 144.07 167.242C143.897 167.424 143.68 167.563 143.42 167.658C143.645 167.736 143.849 167.844 144.031 167.983C144.222 168.122 144.382 168.286 144.512 168.477C144.651 168.659 144.755 168.858 144.824 169.075C144.902 169.283 144.941 169.5 144.941 169.725C144.941 170.063 144.88 170.375 144.759 170.661C144.638 170.938 144.451 171.177 144.2 171.376C143.957 171.575 143.645 171.731 143.264 171.844C142.883 171.948 142.432 172 141.912 172H139.624ZM140.521 171.207H142.068C142.449 171.207 142.783 171.159 143.069 171.064C143.355 170.96 143.576 170.795 143.732 170.57C143.897 170.345 143.979 170.046 143.979 169.673C143.979 169.352 143.91 169.071 143.771 168.828C143.632 168.577 143.407 168.382 143.095 168.243C142.792 168.096 142.376 168.022 141.847 168.022H140.521V171.207ZM140.521 167.255H141.795C142.272 167.255 142.649 167.199 142.926 167.086C143.203 166.973 143.403 166.822 143.524 166.631C143.645 166.432 143.706 166.211 143.706 165.968C143.706 165.786 143.671 165.617 143.602 165.461C143.541 165.305 143.442 165.171 143.303 165.058C143.164 164.937 142.982 164.841 142.757 164.772C142.532 164.703 142.259 164.668 141.938 164.668H140.521V167.255ZM146.267 172V163.901H148.867C149.474 163.901 149.963 164.005 150.336 164.213C150.709 164.421 150.982 164.698 151.155 165.045C151.337 165.383 151.428 165.764 151.428 166.189C151.428 166.501 151.38 166.791 151.285 167.06C151.19 167.329 151.038 167.567 150.83 167.775C150.631 167.983 150.375 168.143 150.063 168.256C149.751 168.369 149.374 168.425 148.932 168.425H147.203V172H146.267ZM147.203 167.619H148.828C149.227 167.619 149.547 167.563 149.79 167.45C150.033 167.329 150.21 167.164 150.323 166.956C150.436 166.739 150.492 166.492 150.492 166.215C150.492 165.946 150.436 165.704 150.323 165.487C150.21 165.27 150.033 165.097 149.79 164.967C149.547 164.828 149.231 164.759 148.841 164.759H147.203V167.619ZM152.767 172V163.901H155.367C155.974 163.901 156.463 164.005 156.836 164.213C157.209 164.421 157.482 164.698 157.655 165.045C157.837 165.383 157.928 165.764 157.928 166.189C157.928 166.501 157.88 166.791 157.785 167.06C157.69 167.329 157.538 167.567 157.33 167.775C157.131 167.983 156.875 168.143 156.563 168.256C156.251 168.369 155.874 168.425 155.432 168.425H153.703V172H152.767ZM153.703 167.619H155.328C155.727 167.619 156.047 167.563 156.29 167.45C156.533 167.329 156.71 167.164 156.823 166.956C156.936 166.739 156.992 166.492 156.992 166.215C156.992 165.946 156.936 165.704 156.823 165.487C156.71 165.27 156.533 165.097 156.29 164.967C156.047 164.828 155.731 164.759 155.341 164.759H153.703V167.619ZM170.135 173.352C169.416 173.014 168.787 172.563 168.25 172C167.721 171.428 167.31 170.787 167.015 170.076C166.729 169.357 166.586 168.611 166.586 167.84C166.586 167.069 166.729 166.336 167.015 165.643C167.301 164.941 167.704 164.317 168.224 163.771C168.744 163.216 169.355 162.774 170.057 162.445L170.304 163.251C169.888 163.476 169.507 163.754 169.16 164.083C168.822 164.412 168.527 164.776 168.276 165.175C168.033 165.574 167.843 166.003 167.704 166.462C167.574 166.921 167.509 167.394 167.509 167.879C167.509 168.364 167.574 168.837 167.704 169.296C167.843 169.755 168.038 170.193 168.289 170.609C168.54 171.016 168.839 171.389 169.186 171.727C169.541 172.056 169.94 172.338 170.382 172.572L170.135 173.352ZM174.75 172.104C174.213 172.104 173.736 171.974 173.32 171.714C172.913 171.445 172.592 171.081 172.358 170.622C172.124 170.154 172.007 169.621 172.007 169.023C172.007 168.416 172.124 167.883 172.358 167.424C172.592 166.956 172.913 166.592 173.32 166.332C173.736 166.063 174.213 165.929 174.75 165.929C175.287 165.929 175.76 166.063 176.167 166.332C176.583 166.592 176.908 166.956 177.142 167.424C177.376 167.883 177.493 168.416 177.493 169.023C177.493 169.621 177.376 170.154 177.142 170.622C176.908 171.081 176.583 171.445 176.167 171.714C175.76 171.974 175.287 172.104 174.75 172.104ZM174.75 171.324C175.097 171.324 175.4 171.224 175.66 171.025C175.92 170.826 176.124 170.553 176.271 170.206C176.427 169.859 176.505 169.461 176.505 169.01C176.505 168.559 176.427 168.161 176.271 167.814C176.124 167.467 175.92 167.199 175.66 167.008C175.4 166.809 175.097 166.709 174.75 166.709C174.412 166.709 174.109 166.809 173.84 167.008C173.58 167.199 173.372 167.467 173.216 167.814C173.069 168.161 172.995 168.559 172.995 169.01C172.995 169.461 173.069 169.859 173.216 170.206C173.372 170.553 173.58 170.826 173.84 171.025C174.109 171.224 174.412 171.324 174.75 171.324ZM180.873 172.143C180.639 172.143 180.418 172.108 180.21 172.039C180.002 171.97 179.811 171.866 179.638 171.727C179.473 171.58 179.33 171.398 179.209 171.181C179.088 170.964 178.992 170.704 178.923 170.401C178.862 170.098 178.832 169.755 178.832 169.374L178.845 166.059H179.755V169.374C179.755 169.747 179.79 170.063 179.859 170.323C179.928 170.583 180.024 170.791 180.145 170.947C180.275 171.103 180.422 171.216 180.587 171.285C180.752 171.354 180.925 171.389 181.107 171.389C181.315 171.389 181.514 171.35 181.705 171.272C181.896 171.185 182.065 171.06 182.212 170.895C182.368 170.73 182.489 170.518 182.576 170.258C182.663 169.998 182.706 169.69 182.706 169.335V166.059H183.616V171.077C183.616 171.233 183.62 171.389 183.629 171.545C183.646 171.692 183.685 171.844 183.746 172H182.849C182.806 171.896 182.775 171.796 182.758 171.701C182.741 171.597 182.728 171.493 182.719 171.389C182.719 171.285 182.719 171.185 182.719 171.09C182.624 171.255 182.511 171.402 182.381 171.532C182.251 171.662 182.104 171.775 181.939 171.87C181.783 171.957 181.614 172.022 181.432 172.065C181.259 172.117 181.072 172.143 180.873 172.143ZM186.047 166.059H187.022L186.983 167.788L186.866 167.593C186.918 167.324 187.009 167.086 187.139 166.878C187.269 166.67 187.425 166.497 187.607 166.358C187.789 166.211 187.988 166.102 188.205 166.033C188.422 165.955 188.647 165.916 188.881 165.916C189.193 165.916 189.479 165.972 189.739 166.085C190.008 166.189 190.246 166.349 190.454 166.566L190.038 167.294L189.986 167.411L189.895 167.359C189.878 167.29 189.852 167.225 189.817 167.164C189.782 167.103 189.709 167.03 189.596 166.943C189.457 166.856 189.327 166.8 189.206 166.774C189.093 166.739 188.963 166.722 188.816 166.722C188.599 166.722 188.383 166.765 188.166 166.852C187.949 166.93 187.75 167.056 187.568 167.229C187.395 167.402 187.256 167.623 187.152 167.892C187.048 168.161 186.996 168.481 186.996 168.854V172.013H186.047V166.059ZM194.263 172.13C193.934 172.13 193.617 172.095 193.314 172.026C193.019 171.957 192.738 171.853 192.469 171.714C192.209 171.575 191.966 171.402 191.741 171.194L192.261 170.31L192.339 170.193L192.417 170.245C192.434 170.314 192.452 170.388 192.469 170.466C192.495 170.535 192.556 170.622 192.651 170.726C192.833 170.908 193.05 171.06 193.301 171.181C193.561 171.294 193.89 171.35 194.289 171.35C194.61 171.35 194.878 171.311 195.095 171.233C195.32 171.155 195.494 171.047 195.615 170.908C195.736 170.761 195.797 170.592 195.797 170.401C195.797 170.271 195.771 170.158 195.719 170.063C195.667 169.959 195.58 169.864 195.459 169.777C195.346 169.69 195.195 169.604 195.004 169.517C194.813 169.43 194.579 169.344 194.302 169.257C193.851 169.127 193.457 168.975 193.119 168.802C192.781 168.629 192.521 168.429 192.339 168.204C192.157 167.97 192.066 167.706 192.066 167.411C192.066 167.108 192.148 166.848 192.313 166.631C192.478 166.406 192.72 166.232 193.041 166.111C193.37 165.981 193.773 165.916 194.25 165.916C194.527 165.916 194.779 165.938 195.004 165.981C195.229 166.016 195.437 166.072 195.628 166.15C195.819 166.228 195.992 166.328 196.148 166.449C196.313 166.562 196.469 166.696 196.616 166.852L196.083 167.502L195.992 167.606L195.927 167.541C195.918 167.472 195.897 167.407 195.862 167.346C195.836 167.277 195.775 167.194 195.68 167.099C195.481 166.943 195.255 166.826 195.004 166.748C194.753 166.661 194.51 166.618 194.276 166.618C193.929 166.618 193.63 166.679 193.379 166.8C193.128 166.921 193.002 167.108 193.002 167.359C193.002 167.489 193.045 167.619 193.132 167.749C193.227 167.87 193.396 167.996 193.639 168.126C193.882 168.247 194.228 168.373 194.679 168.503C195.173 168.659 195.567 168.819 195.862 168.984C196.165 169.14 196.382 169.322 196.512 169.53C196.651 169.738 196.72 169.985 196.72 170.271C196.72 170.6 196.629 170.908 196.447 171.194C196.274 171.48 196.005 171.71 195.641 171.883C195.277 172.048 194.818 172.13 194.263 172.13ZM199.229 173.352L198.982 172.572C199.424 172.338 199.818 172.056 200.165 171.727C200.52 171.389 200.824 171.016 201.075 170.609C201.326 170.193 201.517 169.755 201.647 169.296C201.786 168.837 201.855 168.364 201.855 167.879C201.855 167.394 201.786 166.921 201.647 166.462C201.517 166.003 201.326 165.574 201.075 165.175C200.832 164.776 200.538 164.412 200.191 164.083C199.853 163.754 199.476 163.476 199.06 163.251L199.307 162.445C200.009 162.774 200.62 163.216 201.14 163.771C201.66 164.317 202.063 164.941 202.349 165.643C202.635 166.336 202.778 167.069 202.778 167.84C202.778 168.611 202.631 169.357 202.336 170.076C202.05 170.787 201.638 171.428 201.101 172C200.572 172.563 199.948 173.014 199.229 173.352Z" fill="black"/>
<path d="M43.601 172.13C42.9597 172.13 42.4007 171.961 41.924 171.623C41.456 171.285 41.0963 170.808 40.845 170.193C40.5937 169.578 40.468 168.863 40.468 168.048C40.4593 167.346 40.52 166.752 40.65 166.267C40.7887 165.773 40.9707 165.366 41.196 165.045C41.4213 164.724 41.6727 164.473 41.95 164.291C42.2273 164.109 42.5047 163.983 42.782 163.914C43.068 163.845 43.328 163.81 43.562 163.81C43.8827 163.81 44.1947 163.871 44.498 163.992C44.81 164.105 45.0917 164.261 45.343 164.46C45.603 164.659 45.8067 164.898 45.954 165.175L45.317 165.682L45.213 165.773L45.161 165.695C45.1697 165.626 45.1567 165.565 45.122 165.513C45.096 165.452 45.0353 165.366 44.94 165.253C44.81 165.106 44.6757 164.984 44.537 164.889C44.3983 164.794 44.2467 164.724 44.082 164.681C43.926 164.638 43.7483 164.616 43.549 164.616C43.315 164.616 43.0897 164.651 42.873 164.72C42.6563 164.781 42.457 164.889 42.275 165.045C42.093 165.192 41.9327 165.392 41.794 165.643C41.6553 165.894 41.547 166.202 41.469 166.566C41.3997 166.93 41.365 167.359 41.365 167.853C41.365 168.416 41.417 168.915 41.521 169.348C41.625 169.773 41.7723 170.132 41.963 170.427C42.1623 170.722 42.3963 170.947 42.665 171.103C42.9423 171.25 43.2543 171.324 43.601 171.324C43.7223 171.324 43.848 171.315 43.978 171.298C44.1167 171.281 44.251 171.255 44.381 171.22C44.5197 171.177 44.654 171.125 44.784 171.064C44.914 170.995 45.031 170.917 45.135 170.83V168.906H43.666V168.113H45.98V171.285C45.5987 171.562 45.2087 171.775 44.81 171.922C44.4113 172.061 44.0083 172.13 43.601 172.13ZM49.75 172.104C49.2127 172.104 48.736 171.974 48.32 171.714C47.9127 171.445 47.592 171.081 47.358 170.622C47.124 170.154 47.007 169.621 47.007 169.023C47.007 168.416 47.124 167.883 47.358 167.424C47.592 166.956 47.9127 166.592 48.32 166.332C48.736 166.063 49.2127 165.929 49.75 165.929C50.2873 165.929 50.7597 166.063 51.167 166.332C51.583 166.592 51.908 166.956 52.142 167.424C52.376 167.883 52.493 168.416 52.493 169.023C52.493 169.621 52.376 170.154 52.142 170.622C51.908 171.081 51.583 171.445 51.167 171.714C50.7597 171.974 50.2873 172.104 49.75 172.104ZM49.75 171.324C50.0967 171.324 50.4 171.224 50.66 171.025C50.92 170.826 51.1237 170.553 51.271 170.206C51.427 169.859 51.505 169.461 51.505 169.01C51.505 168.559 51.427 168.161 51.271 167.814C51.1237 167.467 50.92 167.199 50.66 167.008C50.4 166.809 50.0967 166.709 49.75 166.709C49.412 166.709 49.1087 166.809 48.84 167.008C48.58 167.199 48.372 167.467 48.216 167.814C48.0687 168.161 47.995 168.559 47.995 169.01C47.995 169.461 48.0687 169.859 48.216 170.206C48.372 170.553 48.58 170.826 48.84 171.025C49.1087 171.224 49.412 171.324 49.75 171.324ZM55.743 172.143C55.067 172.143 54.547 171.991 54.183 171.688C53.819 171.376 53.637 170.982 53.637 170.505C53.637 170.184 53.715 169.898 53.871 169.647C54.027 169.387 54.2393 169.17 54.508 168.997C54.7853 168.815 55.106 168.676 55.47 168.581C55.834 168.486 56.2197 168.438 56.627 168.438C56.7743 168.438 56.9217 168.442 57.069 168.451C57.225 168.451 57.3853 168.46 57.55 168.477C57.7233 168.486 57.901 168.503 58.083 168.529L58.109 169.244C57.953 169.218 57.7927 169.201 57.628 169.192C57.472 169.175 57.316 169.162 57.16 169.153C57.004 169.144 56.8523 169.14 56.705 169.14C56.393 169.14 56.107 169.166 55.847 169.218C55.587 169.27 55.3617 169.348 55.171 169.452C54.9803 169.556 54.833 169.69 54.729 169.855C54.625 170.02 54.573 170.219 54.573 170.453C54.573 170.635 54.6033 170.791 54.664 170.921C54.7333 171.042 54.8243 171.142 54.937 171.22C55.0497 171.289 55.1797 171.341 55.327 171.376C55.483 171.411 55.652 171.428 55.834 171.428C56.172 171.428 56.471 171.376 56.731 171.272C56.9997 171.159 57.225 170.999 57.407 170.791C57.5977 170.583 57.7407 170.327 57.836 170.024C57.9313 169.721 57.979 169.374 57.979 168.984C57.979 168.395 57.9097 167.935 57.771 167.606C57.6323 167.277 57.4243 167.043 57.147 166.904C56.8783 166.765 56.5317 166.696 56.107 166.696C55.821 166.696 55.5393 166.752 55.262 166.865C54.9847 166.969 54.7333 167.134 54.508 167.359L54.053 166.761C54.3303 166.484 54.651 166.276 55.015 166.137C55.379 165.998 55.7647 165.929 56.172 165.929C56.562 165.929 56.9173 165.977 57.238 166.072C57.5587 166.167 57.8317 166.328 58.057 166.553C58.291 166.77 58.4687 167.064 58.59 167.437C58.72 167.81 58.785 168.278 58.785 168.841V172H57.771V171.09C57.6583 171.307 57.5197 171.484 57.355 171.623C57.199 171.762 57.03 171.87 56.848 171.948C56.666 172.017 56.4797 172.065 56.289 172.091C56.0983 172.126 55.9163 172.143 55.743 172.143ZM60.527 172V171.246H62.282V164.109H60.605V163.355H63.231V171.246H64.973V172H60.527ZM67.443 168.347V167.476H71.083V168.347H67.443ZM73.553 172V171.233H75.152V164.668H73.644V163.901H77.661V164.668H76.062V171.246H77.739V172H73.553ZM79.494 172V166.059H80.352V166.644C80.4473 166.497 80.5557 166.371 80.677 166.267C80.807 166.154 80.9457 166.068 81.093 166.007C81.249 165.946 81.405 165.916 81.561 165.916C81.7343 165.916 81.8947 165.955 82.042 166.033C82.1893 166.102 82.3107 166.202 82.406 166.332C82.51 166.462 82.5793 166.614 82.614 166.787C82.692 166.614 82.796 166.462 82.926 166.332C83.0647 166.202 83.2207 166.102 83.394 166.033C83.576 165.955 83.7623 165.916 83.953 165.916C84.1523 165.916 84.3257 165.955 84.473 166.033C84.6203 166.111 84.7417 166.219 84.837 166.358C84.9323 166.488 85.0017 166.648 85.045 166.839C85.0883 167.021 85.1057 167.22 85.097 167.437V172H84.239V167.788C84.239 167.424 84.213 167.16 84.161 166.995C84.1177 166.83 84.0527 166.726 83.966 166.683C83.8793 166.631 83.784 166.605 83.68 166.605C83.5153 166.605 83.3593 166.683 83.212 166.839C83.0733 166.986 82.9563 167.173 82.861 167.398C82.7743 167.623 82.731 167.849 82.731 168.074V172H81.86V167.866C81.86 167.372 81.8123 167.043 81.717 166.878C81.6303 166.713 81.4613 166.631 81.21 166.631C81.1147 166.631 81.015 166.666 80.911 166.735C80.8157 166.796 80.7247 166.887 80.638 167.008C80.5513 167.121 80.482 167.264 80.43 167.437C80.378 167.61 80.352 167.81 80.352 168.035V172H79.494ZM88.243 172.143C87.567 172.143 87.047 171.991 86.683 171.688C86.319 171.376 86.137 170.982 86.137 170.505C86.137 170.184 86.215 169.898 86.371 169.647C86.527 169.387 86.7393 169.17 87.008 168.997C87.2853 168.815 87.606 168.676 87.97 168.581C88.334 168.486 88.7197 168.438 89.127 168.438C89.2743 168.438 89.4217 168.442 89.569 168.451C89.725 168.451 89.8853 168.46 90.05 168.477C90.2233 168.486 90.401 168.503 90.583 168.529L90.609 169.244C90.453 169.218 90.2927 169.201 90.128 169.192C89.972 169.175 89.816 169.162 89.66 169.153C89.504 169.144 89.3523 169.14 89.205 169.14C88.893 169.14 88.607 169.166 88.347 169.218C88.087 169.27 87.8617 169.348 87.671 169.452C87.4803 169.556 87.333 169.69 87.229 169.855C87.125 170.02 87.073 170.219 87.073 170.453C87.073 170.635 87.1033 170.791 87.164 170.921C87.2333 171.042 87.3243 171.142 87.437 171.22C87.5497 171.289 87.6797 171.341 87.827 171.376C87.983 171.411 88.152 171.428 88.334 171.428C88.672 171.428 88.971 171.376 89.231 171.272C89.4997 171.159 89.725 170.999 89.907 170.791C90.0977 170.583 90.2407 170.327 90.336 170.024C90.4313 169.721 90.479 169.374 90.479 168.984C90.479 168.395 90.4097 167.935 90.271 167.606C90.1323 167.277 89.9243 167.043 89.647 166.904C89.3783 166.765 89.0317 166.696 88.607 166.696C88.321 166.696 88.0393 166.752 87.762 166.865C87.4847 166.969 87.2333 167.134 87.008 167.359L86.553 166.761C86.8303 166.484 87.151 166.276 87.515 166.137C87.879 165.998 88.2647 165.929 88.672 165.929C89.062 165.929 89.4173 165.977 89.738 166.072C90.0587 166.167 90.3317 166.328 90.557 166.553C90.791 166.77 90.9687 167.064 91.09 167.437C91.22 167.81 91.285 168.278 91.285 168.841V172H90.271V171.09C90.1583 171.307 90.0197 171.484 89.855 171.623C89.699 171.762 89.53 171.87 89.348 171.948C89.166 172.017 88.9797 172.065 88.789 172.091C88.5983 172.126 88.4163 172.143 88.243 172.143ZM95.211 174.236C94.795 174.236 94.418 174.201 94.08 174.132C93.7507 174.071 93.4647 173.976 93.222 173.846C92.988 173.725 92.806 173.569 92.676 173.378C92.5547 173.187 92.494 172.962 92.494 172.702C92.494 172.459 92.546 172.243 92.65 172.052C92.754 171.861 92.8883 171.705 93.053 171.584C93.2263 171.454 93.4127 171.359 93.612 171.298L94.002 171.532C93.846 171.627 93.7203 171.723 93.625 171.818C93.5297 171.913 93.4603 172.022 93.417 172.143C93.3737 172.273 93.352 172.425 93.352 172.598C93.352 172.745 93.3953 172.875 93.482 172.988C93.5687 173.109 93.69 173.209 93.846 173.287C94.0107 173.365 94.2057 173.426 94.431 173.469C94.665 173.512 94.9293 173.534 95.224 173.534C95.6227 173.534 95.9433 173.491 96.186 173.404C96.4373 173.326 96.6237 173.213 96.745 173.066C96.8663 172.927 96.927 172.767 96.927 172.585C96.927 172.394 96.8923 172.238 96.823 172.117C96.7537 171.996 96.6107 171.905 96.394 171.844C96.1773 171.783 95.848 171.753 95.406 171.753C95.1027 171.753 94.8253 171.74 94.574 171.714C94.3227 171.688 94.0973 171.645 93.898 171.584C93.6987 171.523 93.5297 171.45 93.391 171.363C93.261 171.268 93.1613 171.155 93.092 171.025C93.0227 170.895 92.988 170.743 92.988 170.57C92.988 170.345 93.0487 170.128 93.17 169.92C93.3 169.712 93.4733 169.513 93.69 169.322L94.132 169.673C94.0453 169.768 93.976 169.855 93.924 169.933C93.872 170.002 93.833 170.072 93.807 170.141C93.7897 170.202 93.781 170.271 93.781 170.349C93.781 170.488 93.833 170.6 93.937 170.687C94.0497 170.774 94.2403 170.839 94.509 170.882C94.7777 170.917 95.1417 170.934 95.601 170.934C96.0603 170.934 96.433 170.973 96.719 171.051C97.005 171.12 97.2217 171.224 97.369 171.363C97.525 171.502 97.6333 171.662 97.694 171.844C97.7547 172.026 97.785 172.225 97.785 172.442C97.785 172.676 97.7373 172.897 97.642 173.105C97.5553 173.322 97.4123 173.512 97.213 173.677C97.0137 173.85 96.7493 173.985 96.42 174.08C96.0907 174.184 95.6877 174.236 95.211 174.236ZM94.938 169.985C94.5133 169.985 94.145 169.894 93.833 169.712C93.521 169.521 93.2783 169.27 93.105 168.958C92.9403 168.637 92.858 168.286 92.858 167.905C92.858 167.524 92.9403 167.177 93.105 166.865C93.2783 166.553 93.521 166.306 93.833 166.124C94.145 165.933 94.5133 165.838 94.938 165.838C95.3713 165.838 95.7397 165.933 96.043 166.124C96.355 166.306 96.5933 166.553 96.758 166.865C96.9313 167.177 97.018 167.524 97.018 167.905C97.018 168.286 96.9313 168.637 96.758 168.958C96.5933 169.27 96.355 169.521 96.043 169.712C95.7397 169.894 95.3713 169.985 94.938 169.985ZM94.938 169.205C95.1893 169.205 95.4103 169.149 95.601 169.036C95.8003 168.915 95.9563 168.754 96.069 168.555C96.1817 168.356 96.238 168.139 96.238 167.905C96.238 167.662 96.1817 167.446 96.069 167.255C95.9563 167.056 95.8003 166.9 95.601 166.787C95.4103 166.666 95.1893 166.605 94.938 166.605C94.6867 166.605 94.4613 166.666 94.262 166.787C94.0713 166.9 93.9197 167.056 93.807 167.255C93.6943 167.446 93.638 167.662 93.638 167.905C93.638 168.139 93.6943 168.356 93.807 168.555C93.9197 168.754 94.0713 168.915 94.262 169.036C94.4613 169.149 94.6867 169.205 94.938 169.205ZM96.667 167.021L96.303 166.592C96.5543 166.341 96.8143 166.159 97.083 166.046C97.3603 165.925 97.6853 165.877 98.058 165.903L98.175 166.67C97.889 166.644 97.6203 166.653 97.369 166.696C97.1177 166.739 96.8837 166.848 96.667 167.021ZM102.036 172.13C101.603 172.13 101.208 172.065 100.853 171.935C100.498 171.796 100.19 171.597 99.93 171.337C99.6787 171.077 99.4837 170.756 99.345 170.375C99.2063 169.985 99.137 169.543 99.137 169.049C99.137 168.546 99.2063 168.1 99.345 167.71C99.4923 167.32 99.6873 166.995 99.93 166.735C100.181 166.466 100.472 166.263 100.801 166.124C101.139 165.985 101.494 165.916 101.867 165.916C102.205 165.916 102.521 165.972 102.816 166.085C103.111 166.198 103.366 166.371 103.583 166.605C103.8 166.83 103.969 167.121 104.09 167.476C104.22 167.831 104.285 168.252 104.285 168.737C104.285 168.806 104.281 168.88 104.272 168.958C104.272 169.027 104.268 169.097 104.259 169.166H100.034C100.051 169.547 100.116 169.881 100.229 170.167C100.342 170.444 100.489 170.674 100.671 170.856C100.853 171.029 101.061 171.159 101.295 171.246C101.538 171.333 101.793 171.376 102.062 171.376C102.27 171.376 102.465 171.354 102.647 171.311C102.829 171.259 102.998 171.185 103.154 171.09C103.319 170.986 103.466 170.86 103.596 170.713L104.116 171.22C103.951 171.419 103.761 171.588 103.544 171.727C103.336 171.866 103.106 171.965 102.855 172.026C102.604 172.095 102.331 172.13 102.036 172.13ZM100.073 168.438H103.336C103.336 168.161 103.297 167.914 103.219 167.697C103.15 167.472 103.046 167.281 102.907 167.125C102.777 166.96 102.617 166.839 102.426 166.761C102.244 166.674 102.036 166.631 101.802 166.631C101.594 166.631 101.395 166.666 101.204 166.735C101.022 166.804 100.853 166.917 100.697 167.073C100.541 167.22 100.407 167.407 100.294 167.632C100.19 167.857 100.116 168.126 100.073 168.438Z" fill="black"/>
<path d="M53.38 13V3.655H55.795C56.345 3.655 56.805 3.705 57.175 3.805C57.555 3.905 57.875 4.05 58.135 4.24C58.405 4.43 58.645 4.665 58.855 4.945C59.065 5.225 59.24 5.545 59.38 5.905C59.53 6.255 59.645 6.635 59.725 7.045C59.805 7.455 59.845 7.905 59.845 8.395C59.825 9.105 59.73 9.745 59.56 10.315C59.4 10.875 59.15 11.355 58.81 11.755C58.48 12.155 58.05 12.465 57.52 12.685C56.99 12.895 56.355 13 55.615 13H53.38ZM55.03 11.68H55.57C56.21 11.68 56.72 11.545 57.1 11.275C57.49 10.995 57.77 10.61 57.94 10.12C58.11 9.63 58.19 9.06 58.18 8.41C58.18 7.72 58.105 7.12 57.955 6.61C57.815 6.1 57.565 5.705 57.205 5.425C56.845 5.145 56.355 5.005 55.735 5.005H55.03V11.68ZM61.585 6.025H63.34L63.325 7.975L63.13 7.855C63.17 7.545 63.255 7.27 63.385 7.03C63.525 6.79 63.695 6.58 63.895 6.4C64.105 6.22 64.33 6.085 64.57 5.995C64.82 5.905 65.075 5.86 65.335 5.86C65.725 5.86 66.075 5.925 66.385 6.055C66.705 6.175 67 6.375 67.27 6.655L66.55 8.08L66.505 8.2L66.37 8.14C66.34 8.06 66.31 7.98 66.28 7.9C66.25 7.81 66.175 7.71 66.055 7.6C65.915 7.49 65.765 7.405 65.605 7.345C65.455 7.285 65.29 7.255 65.11 7.255C64.87 7.255 64.64 7.295 64.42 7.375C64.2 7.455 64.005 7.58 63.835 7.75C63.675 7.92 63.545 8.14 63.445 8.41C63.355 8.67 63.31 8.98 63.31 9.34V13H61.585V6.025ZM70.72 13.18C69.95 13.18 69.35 13 68.92 12.64C68.5 12.27 68.29 11.795 68.29 11.215C68.29 10.845 68.37 10.505 68.53 10.195C68.7 9.875 68.95 9.6 69.28 9.37C69.61 9.14 70.02 8.965 70.51 8.845C71 8.715 71.56 8.65 72.19 8.65C72.27 8.65 72.37 8.65 72.49 8.65C72.61 8.65 72.74 8.655 72.88 8.665C73.02 8.665 73.15 8.675 73.27 8.695L73.315 9.865C73.215 9.855 73.095 9.85 72.955 9.85C72.815 9.84 72.67 9.835 72.52 9.835C72.38 9.825 72.26 9.82 72.16 9.82C71.76 9.82 71.42 9.85 71.14 9.91C70.87 9.97 70.65 10.055 70.48 10.165C70.31 10.265 70.185 10.39 70.105 10.54C70.025 10.68 69.985 10.835 69.985 11.005C69.985 11.165 70.01 11.3 70.06 11.41C70.12 11.52 70.195 11.61 70.285 11.68C70.385 11.74 70.5 11.785 70.63 11.815C70.76 11.845 70.9 11.86 71.05 11.86C71.35 11.86 71.61 11.815 71.83 11.725C72.06 11.625 72.25 11.47 72.4 11.26C72.56 11.05 72.675 10.79 72.745 10.48C72.825 10.16 72.865 9.785 72.865 9.355C72.865 8.775 72.805 8.33 72.685 8.02C72.565 7.71 72.39 7.495 72.16 7.375C71.93 7.245 71.64 7.18 71.29 7.18C70.97 7.18 70.665 7.235 70.375 7.345C70.095 7.445 69.82 7.635 69.55 7.915L68.62 6.895C69.01 6.525 69.445 6.26 69.925 6.1C70.405 5.94 70.885 5.86 71.365 5.86C71.805 5.86 72.215 5.91 72.595 6.01C72.975 6.11 73.305 6.28 73.585 6.52C73.875 6.75 74.1 7.07 74.26 7.48C74.43 7.88 74.515 8.38 74.515 8.98V13H72.76V12.25C72.63 12.42 72.49 12.565 72.34 12.685C72.19 12.805 72.03 12.9 71.86 12.97C71.69 13.04 71.51 13.09 71.32 13.12C71.13 13.16 70.93 13.18 70.72 13.18ZM76.675 13L75.385 6.025H76.855L77.65 10.795L78.64 6.805H79.525L80.695 10.765C80.785 10.105 80.855 9.545 80.905 9.085C80.965 8.625 81.01 8.235 81.04 7.915C81.07 7.595 81.09 7.32 81.1 7.09C81.11 6.85 81.115 6.63 81.115 6.43V6.025H82.555C82.495 6.765 82.41 7.535 82.3 8.335C82.19 9.135 82.065 9.93 81.925 10.72C81.795 11.51 81.66 12.27 81.52 13H80.035L79.06 9.22L78.16 13H76.675ZM84.01 13V11.665H85.72V7.36H84.1V6.025H87.43V11.665H88.99V13H84.01ZM86.5 4.87C86.21 4.87 85.96 4.77 85.75 4.57C85.54 4.37 85.435 4.13 85.435 3.85C85.435 3.55 85.535 3.305 85.735 3.115C85.935 2.925 86.19 2.83 86.5 2.83C86.78 2.83 87.025 2.93 87.235 3.13C87.455 3.33 87.565 3.57 87.565 3.85C87.565 4.13 87.455 4.37 87.235 4.57C87.025 4.77 86.78 4.87 86.5 4.87ZM91.075 13V6.025H92.77V6.985C92.94 6.765 93.125 6.57 93.325 6.4C93.525 6.23 93.745 6.1 93.985 6.01C94.235 5.91 94.5 5.86 94.78 5.86C95.19 5.86 95.565 5.96 95.905 6.16C96.245 6.35 96.52 6.66 96.73 7.09C96.94 7.52 97.045 8.085 97.045 8.785V13H95.35V8.815C95.35 8.425 95.31 8.11 95.23 7.87C95.15 7.63 95.03 7.455 94.87 7.345C94.72 7.225 94.54 7.165 94.33 7.165C94.14 7.165 93.95 7.205 93.76 7.285C93.58 7.355 93.415 7.465 93.265 7.615C93.115 7.765 92.995 7.945 92.905 8.155C92.815 8.355 92.77 8.585 92.77 8.845V13H91.075ZM101.335 15.685C100.835 15.685 100.39 15.64 100 15.55C99.61 15.46 99.28 15.335 99.01 15.175C98.74 15.015 98.53 14.82 98.38 14.59C98.24 14.37 98.17 14.12 98.17 13.84C98.17 13.6 98.23 13.375 98.35 13.165C98.47 12.955 98.63 12.775 98.83 12.625C99.04 12.465 99.265 12.34 99.505 12.25L100.27 12.565C100.14 12.665 100.01 12.765 99.88 12.865C99.76 12.955 99.66 13.055 99.58 13.165C99.51 13.285 99.475 13.425 99.475 13.585C99.475 13.715 99.525 13.83 99.625 13.93C99.725 14.03 99.865 14.11 100.045 14.17C100.225 14.24 100.435 14.29 100.675 14.32C100.915 14.35 101.18 14.365 101.47 14.365C101.85 14.365 102.17 14.33 102.43 14.26C102.69 14.19 102.89 14.09 103.03 13.96C103.17 13.84 103.24 13.7 103.24 13.54C103.24 13.39 103.2 13.265 103.12 13.165C103.04 13.075 102.895 13.01 102.685 12.97C102.475 12.93 102.18 12.91 101.8 12.91C101.48 12.91 101.165 12.895 100.855 12.865C100.545 12.835 100.25 12.785 99.97 12.715C99.7 12.645 99.46 12.555 99.25 12.445C99.04 12.325 98.875 12.18 98.755 12.01C98.645 11.84 98.59 11.635 98.59 11.395C98.59 11.065 98.685 10.78 98.875 10.54C99.075 10.3 99.315 10.08 99.595 9.88L100.375 10.33C100.275 10.42 100.185 10.495 100.105 10.555C100.035 10.615 99.98 10.675 99.94 10.735C99.9 10.785 99.88 10.86 99.88 10.96C99.88 11.08 99.955 11.18 100.105 11.26C100.265 11.34 100.52 11.4 100.87 11.44C101.23 11.48 101.695 11.5 102.265 11.5C102.715 11.5 103.09 11.55 103.39 11.65C103.69 11.74 103.93 11.875 104.11 12.055C104.29 12.225 104.42 12.425 104.5 12.655C104.59 12.875 104.635 13.11 104.635 13.36C104.635 13.66 104.57 13.945 104.44 14.215C104.31 14.495 104.11 14.745 103.84 14.965C103.57 15.185 103.225 15.36 102.805 15.49C102.395 15.62 101.905 15.685 101.335 15.685ZM101.2 10.645C100.71 10.645 100.265 10.54 99.865 10.33C99.475 10.12 99.165 9.835 98.935 9.475C98.715 9.105 98.605 8.695 98.605 8.245C98.605 7.795 98.715 7.39 98.935 7.03C99.165 6.66 99.475 6.365 99.865 6.145C100.265 5.925 100.71 5.815 101.2 5.815C101.7 5.815 102.14 5.925 102.52 6.145C102.91 6.365 103.215 6.66 103.435 7.03C103.665 7.39 103.78 7.795 103.78 8.245C103.78 8.695 103.665 9.105 103.435 9.475C103.215 9.835 102.91 10.12 102.52 10.33C102.14 10.54 101.7 10.645 101.2 10.645ZM101.185 9.415C101.405 9.415 101.6 9.365 101.77 9.265C101.95 9.165 102.09 9.025 102.19 8.845C102.3 8.665 102.355 8.465 102.355 8.245C102.355 8.025 102.3 7.83 102.19 7.66C102.09 7.49 101.95 7.355 101.77 7.255C101.6 7.155 101.405 7.105 101.185 7.105C100.985 7.105 100.795 7.16 100.615 7.27C100.445 7.37 100.305 7.505 100.195 7.675C100.085 7.845 100.03 8.035 100.03 8.245C100.03 8.455 100.08 8.65 100.18 8.83C100.29 9.01 100.43 9.155 100.6 9.265C100.78 9.365 100.975 9.415 101.185 9.415ZM103.36 7.3L102.715 6.505C102.995 6.275 103.315 6.1 103.675 5.98C104.035 5.86 104.425 5.815 104.845 5.845L105.01 7.015C104.71 6.955 104.415 6.95 104.125 7C103.835 7.05 103.58 7.15 103.36 7.3ZM113.515 13V3.655H119.605V5.035H115.165V7.435H118.81V8.83H115.165V11.62H119.56V13H113.515ZM121.585 6.025H123.34L123.325 7.975L123.13 7.855C123.17 7.545 123.255 7.27 123.385 7.03C123.525 6.79 123.695 6.58 123.895 6.4C124.105 6.22 124.33 6.085 124.57 5.995C124.82 5.905 125.075 5.86 125.335 5.86C125.725 5.86 126.075 5.925 126.385 6.055C126.705 6.175 127 6.375 127.27 6.655L126.55 8.08L126.505 8.2L126.37 8.14C126.34 8.06 126.31 7.98 126.28 7.9C126.25 7.81 126.175 7.71 126.055 7.6C125.915 7.49 125.765 7.405 125.605 7.345C125.455 7.285 125.29 7.255 125.11 7.255C124.87 7.255 124.64 7.295 124.42 7.375C124.2 7.455 124.005 7.58 123.835 7.75C123.675 7.92 123.545 8.14 123.445 8.41C123.355 8.67 123.31 8.98 123.31 9.34V13H121.585V6.025ZM129.085 6.025H130.84L130.825 7.975L130.63 7.855C130.67 7.545 130.755 7.27 130.885 7.03C131.025 6.79 131.195 6.58 131.395 6.4C131.605 6.22 131.83 6.085 132.07 5.995C132.32 5.905 132.575 5.86 132.835 5.86C133.225 5.86 133.575 5.925 133.885 6.055C134.205 6.175 134.5 6.375 134.77 6.655L134.05 8.08L134.005 8.2L133.87 8.14C133.84 8.06 133.81 7.98 133.78 7.9C133.75 7.81 133.675 7.71 133.555 7.6C133.415 7.49 133.265 7.405 133.105 7.345C132.955 7.285 132.79 7.255 132.61 7.255C132.37 7.255 132.14 7.295 131.92 7.375C131.7 7.455 131.505 7.58 131.335 7.75C131.175 7.92 131.045 8.14 130.945 8.41C130.855 8.67 130.81 8.98 130.81 9.34V13H129.085V6.025ZM138.985 13.15C138.365 13.15 137.8 13 137.29 12.7C136.79 12.39 136.395 11.96 136.105 11.41C135.815 10.86 135.67 10.225 135.67 9.505C135.67 8.815 135.815 8.195 136.105 7.645C136.395 7.095 136.79 6.66 137.29 6.34C137.8 6.02 138.365 5.86 138.985 5.86C139.615 5.86 140.18 6.02 140.68 6.34C141.19 6.66 141.59 7.095 141.88 7.645C142.18 8.195 142.33 8.815 142.33 9.505C142.33 10.225 142.18 10.86 141.88 11.41C141.59 11.96 141.19 12.39 140.68 12.7C140.18 13 139.615 13.15 138.985 13.15ZM138.985 11.8C139.315 11.8 139.6 11.705 139.84 11.515C140.08 11.315 140.27 11.045 140.41 10.705C140.56 10.355 140.635 9.955 140.635 9.505C140.635 9.035 140.56 8.63 140.41 8.29C140.27 7.95 140.08 7.69 139.84 7.51C139.6 7.32 139.315 7.225 138.985 7.225C138.685 7.225 138.41 7.32 138.16 7.51C137.92 7.69 137.725 7.95 137.575 8.29C137.435 8.63 137.365 9.035 137.365 9.505C137.365 9.955 137.435 10.355 137.575 10.705C137.715 11.045 137.905 11.315 138.145 11.515C138.395 11.705 138.675 11.8 138.985 11.8ZM144.085 6.025H145.84L145.825 7.975L145.63 7.855C145.67 7.545 145.755 7.27 145.885 7.03C146.025 6.79 146.195 6.58 146.395 6.4C146.605 6.22 146.83 6.085 147.07 5.995C147.32 5.905 147.575 5.86 147.835 5.86C148.225 5.86 148.575 5.925 148.885 6.055C149.205 6.175 149.5 6.375 149.77 6.655L149.05 8.08L149.005 8.2L148.87 8.14C148.84 8.06 148.81 7.98 148.78 7.9C148.75 7.81 148.675 7.71 148.555 7.6C148.415 7.49 148.265 7.405 148.105 7.345C147.955 7.285 147.79 7.255 147.61 7.255C147.37 7.255 147.14 7.295 146.92 7.375C146.7 7.455 146.505 7.58 146.335 7.75C146.175 7.92 146.045 8.14 145.945 8.41C145.855 8.67 145.81 8.98 145.81 9.34V13H144.085V6.025ZM163.69 14.62C162.74 14.2 161.935 13.66 161.275 13C160.615 12.35 160.12 11.615 159.79 10.795C159.46 9.965 159.295 9.1 159.295 8.2C159.295 7.3 159.46 6.45 159.79 5.65C160.12 4.85 160.605 4.13 161.245 3.49C161.885 2.85 162.67 2.325 163.6 1.915L164.02 3.325C163.53 3.575 163.09 3.87 162.7 4.21C162.32 4.55 161.995 4.925 161.725 5.335C161.465 5.735 161.265 6.18 161.125 6.67C160.995 7.16 160.93 7.685 160.93 8.245C160.93 8.795 161 9.32 161.14 9.82C161.29 10.32 161.5 10.785 161.77 11.215C162.05 11.645 162.385 12.03 162.775 12.37C163.175 12.71 163.63 13.01 164.14 13.27L163.69 14.62ZM168.205 3.85H169.825V10.165L171.16 8.47L172.375 9.505L169.45 13.075H168.565L165.64 9.505L166.855 8.47L168.205 10.18V3.85ZM174.73 14.62L174.28 13.27C174.79 13.01 175.24 12.71 175.63 12.37C176.03 12.03 176.365 11.645 176.635 11.215C176.915 10.785 177.125 10.32 177.265 9.82C177.415 9.32 177.49 8.795 177.49 8.245C177.49 7.685 177.42 7.16 177.28 6.67C177.15 6.18 176.95 5.735 176.68 5.335C176.42 4.925 176.095 4.55 175.705 4.21C175.325 3.87 174.89 3.575 174.4 3.325L174.82 1.915C175.75 2.325 176.535 2.85 177.175 3.49C177.815 4.13 178.3 4.85 178.63 5.65C178.96 6.45 179.125 7.3 179.125 8.2C179.125 9.1 178.96 9.965 178.63 10.795C178.3 11.615 177.805 12.35 177.145 13C176.495 13.66 175.69 14.2 174.73 14.62ZM20.965 30.335V18.95H25.255V19.85H21.925V29.48H25.27V30.335H20.965ZM30.775 29.15C30.265 29.15 29.79 29.06 29.35 28.88C28.91 28.69 28.52 28.4 28.18 28.01C27.85 27.62 27.59 27.125 27.4 26.525C27.21 25.925 27.115 25.21 27.115 24.38C27.115 23.65 27.185 23.015 27.325 22.475C27.465 21.925 27.655 21.465 27.895 21.095C28.135 20.725 28.41 20.43 28.72 20.21C29.03 19.99 29.355 19.83 29.695 19.73C30.035 19.63 30.375 19.58 30.715 19.58C31.395 19.58 31.975 19.75 32.455 20.09C32.935 20.42 33.295 20.865 33.535 21.425L32.635 21.845L32.5 21.905L32.455 21.8C32.485 21.72 32.485 21.65 32.455 21.59C32.425 21.52 32.37 21.415 32.29 21.275C32.04 20.935 31.78 20.71 31.51 20.6C31.25 20.48 30.975 20.42 30.685 20.42C30.295 20.42 29.94 20.51 29.62 20.69C29.31 20.86 29.04 21.115 28.81 21.455C28.59 21.785 28.42 22.19 28.3 22.67C28.19 23.15 28.135 23.695 28.135 24.305C28.135 24.895 28.2 25.43 28.33 25.91C28.47 26.39 28.655 26.805 28.885 27.155C29.125 27.505 29.4 27.775 29.71 27.965C30.03 28.155 30.37 28.25 30.73 28.25C30.98 28.25 31.22 28.205 31.45 28.115C31.69 28.025 31.91 27.895 32.11 27.725C32.31 27.545 32.48 27.34 32.62 27.11L33.4 27.62C33.1 28.12 32.74 28.5 32.32 28.76C31.9 29.02 31.385 29.15 30.775 29.15ZM35.095 19.025H36.13H36.28V19.13C36.22 19.19 36.18 19.255 36.16 19.325C36.15 19.395 36.145 19.515 36.145 19.685V23.36C36.325 23.08 36.535 22.84 36.775 22.64C37.025 22.43 37.285 22.27 37.555 22.16C37.835 22.04 38.115 21.98 38.395 21.98C38.805 21.98 39.165 22.075 39.475 22.265C39.795 22.455 40.04 22.76 40.21 23.18C40.39 23.6 40.48 24.155 40.48 24.845V29H39.43V24.875C39.43 24.395 39.375 24.015 39.265 23.735C39.155 23.445 39.005 23.24 38.815 23.12C38.625 22.99 38.41 22.925 38.17 22.925C37.99 22.925 37.805 22.955 37.615 23.015C37.425 23.075 37.24 23.165 37.06 23.285C36.89 23.405 36.735 23.555 36.595 23.735C36.455 23.905 36.345 24.1 36.265 24.32C36.185 24.54 36.145 24.785 36.145 25.055V29H35.095V19.025ZM44.665 29.165C43.885 29.165 43.285 28.99 42.865 28.64C42.445 28.28 42.235 27.825 42.235 27.275C42.235 26.905 42.325 26.575 42.505 26.285C42.685 25.985 42.93 25.735 43.24 25.535C43.56 25.325 43.93 25.165 44.35 25.055C44.77 24.945 45.215 24.89 45.685 24.89C45.855 24.89 46.025 24.895 46.195 24.905C46.375 24.905 46.56 24.915 46.75 24.935C46.95 24.945 47.155 24.965 47.365 24.995L47.395 25.82C47.215 25.79 47.03 25.77 46.84 25.76C46.66 25.74 46.48 25.725 46.3 25.715C46.12 25.705 45.945 25.7 45.775 25.7C45.415 25.7 45.085 25.73 44.785 25.79C44.485 25.85 44.225 25.94 44.005 26.06C43.785 26.18 43.615 26.335 43.495 26.525C43.375 26.715 43.315 26.945 43.315 27.215C43.315 27.425 43.35 27.605 43.42 27.755C43.5 27.895 43.605 28.01 43.735 28.1C43.865 28.18 44.015 28.24 44.185 28.28C44.365 28.32 44.56 28.34 44.77 28.34C45.16 28.34 45.505 28.28 45.805 28.16C46.115 28.03 46.375 27.845 46.585 27.605C46.805 27.365 46.97 27.07 47.08 26.72C47.19 26.37 47.245 25.97 47.245 25.52C47.245 24.84 47.165 24.31 47.005 23.93C46.845 23.55 46.605 23.28 46.285 23.12C45.975 22.96 45.575 22.88 45.085 22.88C44.755 22.88 44.43 22.945 44.11 23.075C43.79 23.195 43.5 23.385 43.24 23.645L42.715 22.955C43.035 22.635 43.405 22.395 43.825 22.235C44.245 22.075 44.69 21.995 45.16 21.995C45.61 21.995 46.02 22.05 46.39 22.16C46.76 22.27 47.075 22.455 47.335 22.715C47.605 22.965 47.81 23.305 47.95 23.735C48.1 24.165 48.175 24.705 48.175 25.355V29H47.005V27.95C46.875 28.2 46.715 28.405 46.525 28.565C46.345 28.725 46.15 28.85 45.94 28.94C45.73 29.02 45.515 29.075 45.295 29.105C45.075 29.145 44.865 29.165 44.665 29.165ZM49.57 29V22.145H50.56V22.82C50.67 22.65 50.795 22.505 50.935 22.385C51.085 22.255 51.245 22.155 51.415 22.085C51.595 22.015 51.775 21.98 51.955 21.98C52.155 21.98 52.34 22.025 52.51 22.115C52.68 22.195 52.82 22.31 52.93 22.46C53.05 22.61 53.13 22.785 53.17 22.985C53.26 22.785 53.38 22.61 53.53 22.46C53.69 22.31 53.87 22.195 54.07 22.115C54.28 22.025 54.495 21.98 54.715 21.98C54.945 21.98 55.145 22.025 55.315 22.115C55.485 22.205 55.625 22.33 55.735 22.49C55.845 22.64 55.925 22.825 55.975 23.045C56.025 23.255 56.045 23.485 56.035 23.735V29H55.045V24.14C55.045 23.72 55.015 23.415 54.955 23.225C54.905 23.035 54.83 22.915 54.73 22.865C54.63 22.805 54.52 22.775 54.4 22.775C54.21 22.775 54.03 22.865 53.86 23.045C53.7 23.215 53.565 23.43 53.455 23.69C53.355 23.95 53.305 24.21 53.305 24.47V29H52.3V24.23C52.3 23.66 52.245 23.28 52.135 23.09C52.035 22.9 51.84 22.805 51.55 22.805C51.44 22.805 51.325 22.845 51.205 22.925C51.095 22.995 50.99 23.1 50.89 23.24C50.79 23.37 50.71 23.535 50.65 23.735C50.59 23.935 50.56 24.165 50.56 24.425V29H49.57ZM58.93 23H57.445V22.145H58.93V21.575C58.93 20.965 59.035 20.465 59.245 20.075C59.465 19.685 59.765 19.4 60.145 19.22C60.525 19.03 60.96 18.935 61.45 18.935C61.88 18.935 62.28 19.015 62.65 19.175C63.03 19.325 63.345 19.56 63.595 19.88L63.025 20.675L62.935 20.795L62.845 20.735C62.835 20.655 62.815 20.575 62.785 20.495C62.755 20.415 62.685 20.315 62.575 20.195C62.415 20.055 62.255 19.955 62.095 19.895C61.935 19.835 61.73 19.805 61.48 19.805C61.19 19.805 60.93 19.865 60.7 19.985C60.47 20.095 60.29 20.28 60.16 20.54C60.03 20.79 59.965 21.135 59.965 21.575V22.145H62.215V23H59.965V29H58.93V23ZM68.08 29.15C67.58 29.15 67.125 29.075 66.715 28.925C66.305 28.765 65.95 28.535 65.65 28.235C65.36 27.935 65.135 27.565 64.975 27.125C64.815 26.675 64.735 26.165 64.735 25.595C64.735 25.015 64.815 24.5 64.975 24.05C65.145 23.6 65.37 23.225 65.65 22.925C65.94 22.615 66.275 22.38 66.655 22.22C67.045 22.06 67.455 21.98 67.885 21.98C68.275 21.98 68.64 22.045 68.98 22.175C69.32 22.305 69.615 22.505 69.865 22.775C70.115 23.035 70.31 23.37 70.45 23.78C70.6 24.19 70.675 24.675 70.675 25.235C70.675 25.315 70.67 25.4 70.66 25.49C70.66 25.57 70.655 25.65 70.645 25.73H65.77C65.79 26.17 65.865 26.555 65.995 26.885C66.125 27.205 66.295 27.47 66.505 27.68C66.715 27.88 66.955 28.03 67.225 28.13C67.505 28.23 67.8 28.28 68.11 28.28C68.35 28.28 68.575 28.255 68.785 28.205C68.995 28.145 69.19 28.06 69.37 27.95C69.56 27.83 69.73 27.685 69.88 27.515L70.48 28.1C70.29 28.33 70.07 28.525 69.82 28.685C69.58 28.845 69.315 28.96 69.025 29.03C68.735 29.11 68.42 29.15 68.08 29.15ZM65.815 24.89H69.58C69.58 24.57 69.535 24.285 69.445 24.035C69.365 23.775 69.245 23.555 69.085 23.375C68.935 23.185 68.75 23.045 68.53 22.955C68.32 22.855 68.08 22.805 67.81 22.805C67.57 22.805 67.34 22.845 67.12 22.925C66.91 23.005 66.715 23.135 66.535 23.315C66.355 23.485 66.2 23.7 66.07 23.96C65.95 24.22 65.865 24.53 65.815 24.89ZM73.285 22.145H74.41L74.365 24.14L74.23 23.915C74.29 23.605 74.395 23.33 74.545 23.09C74.695 22.85 74.875 22.65 75.085 22.49C75.295 22.32 75.525 22.195 75.775 22.115C76.025 22.025 76.285 21.98 76.555 21.98C76.915 21.98 77.245 22.045 77.545 22.175C77.855 22.295 78.13 22.48 78.37 22.73L77.89 23.57L77.83 23.705L77.725 23.645C77.705 23.565 77.675 23.49 77.635 23.42C77.595 23.35 77.51 23.265 77.38 23.165C77.22 23.065 77.07 23 76.93 22.97C76.8 22.93 76.65 22.91 76.48 22.91C76.23 22.91 75.98 22.96 75.73 23.06C75.48 23.15 75.25 23.295 75.04 23.495C74.84 23.695 74.68 23.95 74.56 24.26C74.44 24.57 74.38 24.94 74.38 25.37V29.015H73.285V22.145ZM90.01 29.15C89.66 29.15 89.315 29.075 88.975 28.925C88.645 28.775 88.34 28.55 88.06 28.25C87.79 27.95 87.575 27.57 87.415 27.11C87.255 26.65 87.175 26.115 87.175 25.505C87.175 24.875 87.26 24.34 87.43 23.9C87.6 23.45 87.825 23.085 88.105 22.805C88.385 22.515 88.695 22.305 89.035 22.175C89.375 22.035 89.72 21.965 90.07 21.965C90.39 21.965 90.675 22.015 90.925 22.115C91.185 22.215 91.41 22.355 91.6 22.535C91.8 22.705 91.955 22.91 92.065 23.15V19.025H93.055H93.205V19.13C93.145 19.19 93.105 19.255 93.085 19.325C93.075 19.395 93.07 19.515 93.07 19.685L93.085 27.935C93.085 28.115 93.09 28.295 93.1 28.475C93.12 28.645 93.165 28.82 93.235 29H92.17C92.12 28.88 92.085 28.76 92.065 28.64C92.045 28.52 92.03 28.405 92.02 28.295C92.02 28.175 92.02 28.055 92.02 27.935C91.88 28.175 91.71 28.39 91.51 28.58C91.31 28.76 91.085 28.9 90.835 29C90.585 29.1 90.31 29.15 90.01 29.15ZM90.175 28.205C90.505 28.205 90.785 28.14 91.015 28.01C91.245 27.87 91.43 27.68 91.57 27.44C91.71 27.19 91.81 26.905 91.87 26.585C91.94 26.255 91.975 25.905 91.975 25.535C91.975 25.025 91.91 24.57 91.78 24.17C91.65 23.76 91.445 23.44 91.165 23.21C90.885 22.97 90.525 22.85 90.085 22.85C89.785 22.85 89.515 22.91 89.275 23.03C89.045 23.14 88.85 23.305 88.69 23.525C88.54 23.745 88.425 24.01 88.345 24.32C88.265 24.62 88.225 24.96 88.225 25.34C88.225 25.91 88.3 26.41 88.45 26.84C88.6 27.27 88.82 27.605 89.11 27.845C89.4 28.085 89.755 28.205 90.175 28.205ZM95.5 29V28.13H97.255V23.015H95.59V22.145H98.335V28.13H99.94V29H95.5ZM97.735 20.705C97.525 20.705 97.345 20.63 97.195 20.48C97.045 20.33 96.97 20.15 96.97 19.94C96.97 19.72 97.04 19.535 97.18 19.385C97.33 19.235 97.515 19.16 97.735 19.16C97.945 19.16 98.125 19.24 98.275 19.4C98.435 19.55 98.515 19.73 98.515 19.94C98.515 20.15 98.435 20.33 98.275 20.48C98.125 20.63 97.945 20.705 97.735 20.705ZM105.265 29.15C104.885 29.15 104.52 29.11 104.17 29.03C103.83 28.95 103.505 28.83 103.195 28.67C102.895 28.51 102.615 28.31 102.355 28.07L102.955 27.05L103.045 26.915L103.135 26.975C103.155 27.055 103.175 27.14 103.195 27.23C103.225 27.31 103.295 27.41 103.405 27.53C103.615 27.74 103.865 27.915 104.155 28.055C104.455 28.185 104.835 28.25 105.295 28.25C105.665 28.25 105.975 28.205 106.225 28.115C106.485 28.025 106.685 27.9 106.825 27.74C106.965 27.57 107.035 27.375 107.035 27.155C107.035 27.005 107.005 26.875 106.945 26.765C106.885 26.645 106.785 26.535 106.645 26.435C106.515 26.335 106.34 26.235 106.12 26.135C105.9 26.035 105.63 25.935 105.31 25.835C104.79 25.685 104.335 25.51 103.945 25.31C103.555 25.11 103.255 24.88 103.045 24.62C102.835 24.35 102.73 24.045 102.73 23.705C102.73 23.355 102.825 23.055 103.015 22.805C103.205 22.545 103.485 22.345 103.855 22.205C104.235 22.055 104.7 21.98 105.25 21.98C105.57 21.98 105.86 22.005 106.12 22.055C106.38 22.095 106.62 22.16 106.84 22.25C107.06 22.34 107.26 22.455 107.44 22.595C107.63 22.725 107.81 22.88 107.98 23.06L107.365 23.81L107.26 23.93L107.185 23.855C107.175 23.775 107.15 23.7 107.11 23.63C107.08 23.55 107.01 23.455 106.9 23.345C106.67 23.165 106.41 23.03 106.12 22.94C105.83 22.84 105.55 22.79 105.28 22.79C104.88 22.79 104.535 22.86 104.245 23C103.955 23.14 103.81 23.355 103.81 23.645C103.81 23.795 103.86 23.945 103.96 24.095C104.07 24.235 104.265 24.38 104.545 24.53C104.825 24.67 105.225 24.815 105.745 24.965C106.315 25.145 106.77 25.33 107.11 25.52C107.46 25.7 107.71 25.91 107.86 26.15C108.02 26.39 108.1 26.675 108.1 27.005C108.1 27.385 107.995 27.74 107.785 28.07C107.585 28.4 107.275 28.665 106.855 28.865C106.435 29.055 105.905 29.15 105.265 29.15ZM113.485 29.105C113.045 29.105 112.685 29.03 112.405 28.88C112.125 28.73 111.91 28.5 111.76 28.19C111.61 27.87 111.51 27.47 111.46 26.99C111.42 26.51 111.41 25.94 111.43 25.28L111.61 20.39L112.735 20.255L112.885 20.24L112.9 20.345C112.85 20.415 112.805 20.485 112.765 20.555C112.735 20.625 112.71 20.745 112.69 20.915L112.555 22.61L112.6 22.88L112.495 25.355C112.465 26.115 112.485 26.705 112.555 27.125C112.625 27.535 112.75 27.82 112.93 27.98C113.11 28.13 113.35 28.205 113.65 28.205C113.98 28.205 114.27 28.14 114.52 28.01C114.78 27.88 115.05 27.715 115.33 27.515L115.66 28.37C115.32 28.62 114.97 28.805 114.61 28.925C114.25 29.045 113.875 29.105 113.485 29.105ZM110.05 22.145H114.985V23.03H110.05V22.145ZM119.665 29.165C118.885 29.165 118.285 28.99 117.865 28.64C117.445 28.28 117.235 27.825 117.235 27.275C117.235 26.905 117.325 26.575 117.505 26.285C117.685 25.985 117.93 25.735 118.24 25.535C118.56 25.325 118.93 25.165 119.35 25.055C119.77 24.945 120.215 24.89 120.685 24.89C120.855 24.89 121.025 24.895 121.195 24.905C121.375 24.905 121.56 24.915 121.75 24.935C121.95 24.945 122.155 24.965 122.365 24.995L122.395 25.82C122.215 25.79 122.03 25.77 121.84 25.76C121.66 25.74 121.48 25.725 121.3 25.715C121.12 25.705 120.945 25.7 120.775 25.7C120.415 25.7 120.085 25.73 119.785 25.79C119.485 25.85 119.225 25.94 119.005 26.06C118.785 26.18 118.615 26.335 118.495 26.525C118.375 26.715 118.315 26.945 118.315 27.215C118.315 27.425 118.35 27.605 118.42 27.755C118.5 27.895 118.605 28.01 118.735 28.1C118.865 28.18 119.015 28.24 119.185 28.28C119.365 28.32 119.56 28.34 119.77 28.34C120.16 28.34 120.505 28.28 120.805 28.16C121.115 28.03 121.375 27.845 121.585 27.605C121.805 27.365 121.97 27.07 122.08 26.72C122.19 26.37 122.245 25.97 122.245 25.52C122.245 24.84 122.165 24.31 122.005 23.93C121.845 23.55 121.605 23.28 121.285 23.12C120.975 22.96 120.575 22.88 120.085 22.88C119.755 22.88 119.43 22.945 119.11 23.075C118.79 23.195 118.5 23.385 118.24 23.645L117.715 22.955C118.035 22.635 118.405 22.395 118.825 22.235C119.245 22.075 119.69 21.995 120.16 21.995C120.61 21.995 121.02 22.05 121.39 22.16C121.76 22.27 122.075 22.455 122.335 22.715C122.605 22.965 122.81 23.305 122.95 23.735C123.1 24.165 123.175 24.705 123.175 25.355V29H122.005V27.95C121.875 28.2 121.715 28.405 121.525 28.565C121.345 28.725 121.15 28.85 120.94 28.94C120.73 29.02 120.515 29.075 120.295 29.105C120.075 29.145 119.865 29.165 119.665 29.165ZM125.08 29V22.145H126.13V23.36C126.31 23.08 126.52 22.84 126.76 22.64C127 22.43 127.265 22.27 127.555 22.16C127.845 22.04 128.145 21.98 128.455 21.98C128.835 21.98 129.175 22.075 129.475 22.265C129.775 22.455 130.015 22.76 130.195 23.18C130.375 23.6 130.465 24.155 130.465 24.845V29H129.415V24.875C129.415 24.395 129.36 24.015 129.25 23.735C129.14 23.445 128.99 23.24 128.8 23.12C128.61 22.99 128.395 22.925 128.155 22.925C127.925 22.925 127.69 22.975 127.45 23.075C127.22 23.175 127.005 23.32 126.805 23.51C126.605 23.69 126.44 23.91 126.31 24.17C126.19 24.43 126.13 24.725 126.13 25.055V29H125.08ZM135.775 29.165C135.275 29.165 134.815 29.075 134.395 28.895C133.975 28.715 133.61 28.465 133.3 28.145C133 27.825 132.765 27.45 132.595 27.02C132.425 26.58 132.34 26.1 132.34 25.58C132.34 25.07 132.425 24.6 132.595 24.17C132.765 23.73 133 23.35 133.3 23.03C133.61 22.71 133.975 22.46 134.395 22.28C134.815 22.1 135.27 22.01 135.76 22.01C136.32 22.01 136.82 22.125 137.26 22.355C137.71 22.575 138.075 22.885 138.355 23.285L137.68 23.945L137.575 24.05L137.5 23.975C137.5 23.895 137.48 23.82 137.44 23.75C137.41 23.68 137.335 23.585 137.215 23.465C136.995 23.265 136.76 23.125 136.51 23.045C136.26 22.965 135.97 22.925 135.64 22.925C135.35 22.925 135.075 22.985 134.815 23.105C134.555 23.225 134.32 23.4 134.11 23.63C133.91 23.85 133.75 24.12 133.63 24.44C133.51 24.76 133.45 25.115 133.45 25.505C133.45 25.895 133.51 26.255 133.63 26.585C133.75 26.905 133.915 27.185 134.125 27.425C134.335 27.665 134.585 27.855 134.875 27.995C135.175 28.125 135.495 28.19 135.835 28.19C136.065 28.19 136.285 28.16 136.495 28.1C136.705 28.03 136.905 27.935 137.095 27.815C137.285 27.685 137.46 27.53 137.62 27.35L138.25 28.085C137.91 28.445 137.53 28.715 137.11 28.895C136.7 29.075 136.255 29.165 135.775 29.165ZM143.08 29.15C142.58 29.15 142.125 29.075 141.715 28.925C141.305 28.765 140.95 28.535 140.65 28.235C140.36 27.935 140.135 27.565 139.975 27.125C139.815 26.675 139.735 26.165 139.735 25.595C139.735 25.015 139.815 24.5 139.975 24.05C140.145 23.6 140.37 23.225 140.65 22.925C140.94 22.615 141.275 22.38 141.655 22.22C142.045 22.06 142.455 21.98 142.885 21.98C143.275 21.98 143.64 22.045 143.98 22.175C144.32 22.305 144.615 22.505 144.865 22.775C145.115 23.035 145.31 23.37 145.45 23.78C145.6 24.19 145.675 24.675 145.675 25.235C145.675 25.315 145.67 25.4 145.66 25.49C145.66 25.57 145.655 25.65 145.645 25.73H140.77C140.79 26.17 140.865 26.555 140.995 26.885C141.125 27.205 141.295 27.47 141.505 27.68C141.715 27.88 141.955 28.03 142.225 28.13C142.505 28.23 142.8 28.28 143.11 28.28C143.35 28.28 143.575 28.255 143.785 28.205C143.995 28.145 144.19 28.06 144.37 27.95C144.56 27.83 144.73 27.685 144.88 27.515L145.48 28.1C145.29 28.33 145.07 28.525 144.82 28.685C144.58 28.845 144.315 28.96 144.025 29.03C143.735 29.11 143.42 29.15 143.08 29.15ZM140.815 24.89H144.58C144.58 24.57 144.535 24.285 144.445 24.035C144.365 23.775 144.245 23.555 144.085 23.375C143.935 23.185 143.75 23.045 143.53 22.955C143.32 22.855 143.08 22.805 142.81 22.805C142.57 22.805 142.34 22.845 142.12 22.925C141.91 23.005 141.715 23.135 141.535 23.315C141.355 23.485 141.2 23.7 141.07 23.96C140.95 24.22 140.865 24.53 140.815 24.89ZM149.485 31.52L148.975 31.07C149.255 30.81 149.485 30.53 149.665 30.23C149.855 29.93 149.95 29.685 149.95 29.495C149.95 29.395 149.91 29.3 149.83 29.21C149.76 29.13 149.67 29.05 149.56 28.97C149.46 28.89 149.37 28.8 149.29 28.7C149.22 28.59 149.185 28.47 149.185 28.34C149.185 28.09 149.265 27.88 149.425 27.71C149.595 27.54 149.81 27.455 150.07 27.455C150.33 27.455 150.565 27.57 150.775 27.8C150.985 28.03 151.09 28.33 151.09 28.7C151.09 28.9 151.055 29.105 150.985 29.315C150.925 29.535 150.825 29.76 150.685 29.99C150.555 30.23 150.39 30.475 150.19 30.725C149.99 30.985 149.755 31.25 149.485 31.52ZM162.4 31.505V22.145H163.495V23.495C163.605 23.145 163.76 22.86 163.96 22.64C164.17 22.42 164.41 22.26 164.68 22.16C164.96 22.05 165.26 21.995 165.58 21.995C165.96 21.995 166.32 22.07 166.66 22.22C167.01 22.36 167.315 22.575 167.575 22.865C167.845 23.155 168.055 23.52 168.205 23.96C168.365 24.4 168.445 24.92 168.445 25.52C168.445 26.12 168.36 26.65 168.19 27.11C168.03 27.57 167.81 27.955 167.53 28.265C167.26 28.565 166.95 28.795 166.6 28.955C166.26 29.105 165.91 29.18 165.55 29.18C165.28 29.18 165.015 29.135 164.755 29.045C164.505 28.965 164.275 28.845 164.065 28.685C163.855 28.515 163.67 28.32 163.51 28.1V31.505H162.4ZM165.37 28.22C165.61 28.22 165.845 28.18 166.075 28.1C166.305 28.01 166.515 27.865 166.705 27.665C166.895 27.465 167.045 27.195 167.155 26.855C167.265 26.505 167.32 26.075 167.32 25.565C167.32 25.015 167.25 24.55 167.11 24.17C166.97 23.78 166.765 23.48 166.495 23.27C166.235 23.06 165.915 22.945 165.535 22.925C165.255 22.905 164.99 22.945 164.74 23.045C164.5 23.145 164.285 23.31 164.095 23.54C163.905 23.77 163.755 24.075 163.645 24.455C163.545 24.825 163.495 25.275 163.495 25.805C163.505 26.125 163.54 26.415 163.6 26.675C163.66 26.935 163.745 27.165 163.855 27.365C163.965 27.555 164.095 27.715 164.245 27.845C164.395 27.965 164.565 28.06 164.755 28.13C164.945 28.19 165.15 28.22 165.37 28.22ZM170.5 29V28.13H172.255V23.015H170.59V22.145H173.335V28.13H174.94V29H170.5ZM172.735 20.705C172.525 20.705 172.345 20.63 172.195 20.48C172.045 20.33 171.97 20.15 171.97 19.94C171.97 19.72 172.04 19.535 172.18 19.385C172.33 19.235 172.515 19.16 172.735 19.16C172.945 19.16 173.125 19.24 173.275 19.4C173.435 19.55 173.515 19.73 173.515 19.94C173.515 20.15 173.435 20.33 173.275 20.48C173.125 20.63 172.945 20.705 172.735 20.705ZM177.205 29L179.62 25.52L177.25 22.145H178.435L180.22 24.68L181.93 22.145H183.04L180.82 25.475L183.34 29H182.11L180.22 26.33L178.435 29H177.205ZM188.08 29.15C187.58 29.15 187.125 29.075 186.715 28.925C186.305 28.765 185.95 28.535 185.65 28.235C185.36 27.935 185.135 27.565 184.975 27.125C184.815 26.675 184.735 26.165 184.735 25.595C184.735 25.015 184.815 24.5 184.975 24.05C185.145 23.6 185.37 23.225 185.65 22.925C185.94 22.615 186.275 22.38 186.655 22.22C187.045 22.06 187.455 21.98 187.885 21.98C188.275 21.98 188.64 22.045 188.98 22.175C189.32 22.305 189.615 22.505 189.865 22.775C190.115 23.035 190.31 23.37 190.45 23.78C190.6 24.19 190.675 24.675 190.675 25.235C190.675 25.315 190.67 25.4 190.66 25.49C190.66 25.57 190.655 25.65 190.645 25.73H185.77C185.79 26.17 185.865 26.555 185.995 26.885C186.125 27.205 186.295 27.47 186.505 27.68C186.715 27.88 186.955 28.03 187.225 28.13C187.505 28.23 187.8 28.28 188.11 28.28C188.35 28.28 188.575 28.255 188.785 28.205C188.995 28.145 189.19 28.06 189.37 27.95C189.56 27.83 189.73 27.685 189.88 27.515L190.48 28.1C190.29 28.33 190.07 28.525 189.82 28.685C189.58 28.845 189.315 28.96 189.025 29.03C188.735 29.11 188.42 29.15 188.08 29.15ZM185.815 24.89H189.58C189.58 24.57 189.535 24.285 189.445 24.035C189.365 23.775 189.245 23.555 189.085 23.375C188.935 23.185 188.75 23.045 188.53 22.955C188.32 22.855 188.08 22.805 187.81 22.805C187.57 22.805 187.34 22.845 187.12 22.925C186.91 23.005 186.715 23.135 186.535 23.315C186.355 23.485 186.2 23.7 186.07 23.96C185.95 24.22 185.865 24.53 185.815 24.89ZM192.685 29V28.13H194.71V19.895H192.775V19.025H195.805V28.13H197.815V29H192.685ZM202.765 29.15C202.385 29.15 202.02 29.11 201.67 29.03C201.33 28.95 201.005 28.83 200.695 28.67C200.395 28.51 200.115 28.31 199.855 28.07L200.455 27.05L200.545 26.915L200.635 26.975C200.655 27.055 200.675 27.14 200.695 27.23C200.725 27.31 200.795 27.41 200.905 27.53C201.115 27.74 201.365 27.915 201.655 28.055C201.955 28.185 202.335 28.25 202.795 28.25C203.165 28.25 203.475 28.205 203.725 28.115C203.985 28.025 204.185 27.9 204.325 27.74C204.465 27.57 204.535 27.375 204.535 27.155C204.535 27.005 204.505 26.875 204.445 26.765C204.385 26.645 204.285 26.535 204.145 26.435C204.015 26.335 203.84 26.235 203.62 26.135C203.4 26.035 203.13 25.935 202.81 25.835C202.29 25.685 201.835 25.51 201.445 25.31C201.055 25.11 200.755 24.88 200.545 24.62C200.335 24.35 200.23 24.045 200.23 23.705C200.23 23.355 200.325 23.055 200.515 22.805C200.705 22.545 200.985 22.345 201.355 22.205C201.735 22.055 202.2 21.98 202.75 21.98C203.07 21.98 203.36 22.005 203.62 22.055C203.88 22.095 204.12 22.16 204.34 22.25C204.56 22.34 204.76 22.455 204.94 22.595C205.13 22.725 205.31 22.88 205.48 23.06L204.865 23.81L204.76 23.93L204.685 23.855C204.675 23.775 204.65 23.7 204.61 23.63C204.58 23.55 204.51 23.455 204.4 23.345C204.17 23.165 203.91 23.03 203.62 22.94C203.33 22.84 203.05 22.79 202.78 22.79C202.38 22.79 202.035 22.86 201.745 23C201.455 23.14 201.31 23.355 201.31 23.645C201.31 23.795 201.36 23.945 201.46 24.095C201.57 24.235 201.765 24.38 202.045 24.53C202.325 24.67 202.725 24.815 203.245 24.965C203.815 25.145 204.27 25.33 204.61 25.52C204.96 25.7 205.21 25.91 205.36 26.15C205.52 26.39 205.6 26.675 205.6 27.005C205.6 27.385 205.495 27.74 205.285 28.07C205.085 28.4 204.775 28.665 204.355 28.865C203.935 29.055 203.405 29.15 202.765 29.15ZM212.77 30.335H208.465V29.48H211.81V19.85H208.48V18.95H212.77V30.335Z" fill="black"/>
<defs>
<clipPath id="clip0_4200_240">
<rect width="219.827" height="128.334" fill="white" transform="translate(0 35)"/>
</clipPath>
</defs>
</svg>
